<?xml version="1.0" encoding="UTF-8" standalone="no"?>
<svg id="Layer_5" data-name="Layer 5" xmlns="http://www.w3.org/2000/svg" viewBox="0 0 500 500">
	<path fill="white" d="M462.18,150.846H77.829v-53.4A12.427,12.427,0,0,0,65.416,85.037H32.96A12.427,12.427,0,0,0,20.547,97.449v12.662A12.427,12.427,0,0,0,32.96,122.524h7.381V418.8a12.427,12.427,0,0,0,12.413,12.413H65.416A12.427,12.427,0,0,0,77.829,418.8V372.778H94.31v27.83a10.447,10.447,0,0,0,10.435,10.435H367.817a10.447,10.447,0,0,0,10.435-10.435v-27.83h14.591v27.83a10.447,10.447,0,0,0,10.434,10.435h37.289A10.447,10.447,0,0,0,451,400.608v-27.83h11.18a18.324,18.324,0,0,0,18.3-18.3V169.148A18.323,18.323,0,0,0,462.18,150.846Zm-64.494,13c-.788.4-18.019,14-18.256,13.528-1.336-.413-213.6.778-214.515-.4a6.5,6.5,0,0,0-.681-.593l-16.608-12.535ZM64.829,418.214H53.341V118.98a9.467,9.467,0,0,0-9.456-9.456H33.547V98.037H64.829Zm82.8-58.436c.787-.4,18.019-14,18.255-13.528,1.337.414,213.6-.782,214.517.4a6.594,6.594,0,0,0,.681.592l16.607,12.535Zm-40.316,13.16h32.157v25.105H107.31Zm45.157,0h32.158v25.105H152.467Zm45.158,0h32.156v25.105H197.625Zm45.156,0h32.157v25.105H242.781Zm45.157,0h32.156v25.105H287.938Zm77.314,25.105H333.094V372.938h32.158Zm72.748,0H405.843V372.938H438Zm29.483-43.568a5.309,5.309,0,0,1-5.3,5.3H419.264L389.219,337.1a14.271,14.271,0,0,0-9.789-3.849H165.881a14.267,14.267,0,0,0-9.788,3.849l-30.046,22.679H77.829V163.846h48.218l30.046,22.678a14.264,14.264,0,0,0,9.788,3.85H379.43a14.264,14.264,0,0,0,9.788-3.85l30.046-22.678H462.18a5.309,5.309,0,0,1,5.3,5.3Z" />
	<path fill="white" d="M203.145,249.812c-5.777-31.237-38.326-52.648-69.32-45.843-31.151,5.737-52.618,38.151-45.941,69.093h0c11.975,57.044,89.542,64.45,112.082,10.71A58.146,58.146,0,0,0,203.145,249.812Zm-55.3,57.5a45.59,45.59,0,0,1-15.307-1.826c.684-8.836,4.477-16.609,7.57-21.613a22.852,22.852,0,0,0,5.457.654A103.223,103.223,0,0,0,147.849,307.31Zm-48.04-43.442a45.751,45.751,0,0,1,1.827-15.3c8.813.694,16.589,4.5,21.6,7.6a22.9,22.9,0,0,0-.648,5.425A103.212,103.212,0,0,0,99.809,263.868Zm35.778-2.3a9.968,9.968,0,0,1,9.957-9.956c13.208.547,13.2,19.369,0,19.913A9.967,9.967,0,0,1,135.587,261.569Zm7.681-45.72a45.891,45.891,0,0,1,15.271,1.829c-.7,8.822-4.486,16.582-7.577,21.587a22.871,22.871,0,0,0-5.441-.651A104.21,104.21,0,0,0,143.268,215.849ZM168.5,261.543a103.174,103.174,0,0,0,22.781-2.277,45.538,45.538,0,0,1-1.825,15.3c-8.817-.69-16.591-4.483-21.606-7.583A22.879,22.879,0,0,0,168.5,261.543Zm20.29-15.041c-9.264,1.9-17.484,2.5-24.536,1.791a23.021,23.021,0,0,0-2.045-2.487,63.914,63.914,0,0,0,8.685-22.362A45.366,45.366,0,0,1,188.789,246.5ZM130.5,218.326c1.884,9.289,2.478,17.506,1.771,24.529a23.1,23.1,0,0,0-2.5,2.059,63.835,63.835,0,0,0-22.354-8.7A45.457,45.457,0,0,1,130.5,218.326Zm-28.2,58.3c9.253-1.9,17.47-2.5,24.529-1.792a23.184,23.184,0,0,0,2.052,2.5,65.352,65.352,0,0,0-8.687,22.37A45.392,45.392,0,0,1,102.3,276.631Zm58.312,28.184c-1.9-9.262-2.5-17.481-1.793-24.534a23.21,23.21,0,0,0,2.492-2.049,63.8,63.8,0,0,0,22.346,8.7A45.49,45.49,0,0,1,160.611,304.815Z" />
	<path fill="white" d="M330.222,249.66c-5.856-31.27-38.642-52.677-69.65-45.607-31.053,5.994-52.172,38.1-45.575,69.009,12.015,57.017,89.368,64.476,112.043,10.8A57.955,57.955,0,0,0,330.222,249.66Zm-55.257,57.65a46.479,46.479,0,0,1-8.908-.413h0a44.822,44.822,0,0,1-6.4-1.411c.682-8.871,4.484-16.627,7.586-21.61a22.842,22.842,0,0,0,5.443.65A103.229,103.229,0,0,0,274.965,307.31Zm-48.044-43.441c-.075-1.5-.077-3.008-.006-4.5a45.506,45.506,0,0,1,1.838-10.8c8.81.694,16.585,4.5,21.6,7.6a22.865,22.865,0,0,0-.649,5.428A103.169,103.169,0,0,0,226.921,263.869Zm35.778-2.3c-.138-7.354,8.193-12.35,14.591-8.8.1.058.2.116.3.169,8.745,5.016,5.28,18.52-4.935,18.592A9.967,9.967,0,0,1,262.7,261.569Zm7.666-45.719a45.931,45.931,0,0,1,15.29,1.828c-.7,8.824-4.486,16.584-7.577,21.588a22.863,22.863,0,0,0-5.44-.652A103.113,103.113,0,0,0,270.365,215.85Zm25.246,45.693a103.105,103.105,0,0,0,22.78-2.277,45.574,45.574,0,0,1-1.824,15.3c-8.819-.691-16.592-4.484-21.606-7.584A22.817,22.817,0,0,0,295.611,261.543ZM315.9,246.5c-9.265,1.9-17.485,2.5-24.536,1.789a23.146,23.146,0,0,0-2.041-2.482,63.956,63.956,0,0,0,8.685-22.364A45.37,45.37,0,0,1,315.9,246.5Zm-58.3-28.171c1.9,9.255,2.5,17.469,1.79,24.52a23.035,23.035,0,0,0-2.506,2.06,63.852,63.852,0,0,0-22.357-8.7A45.454,45.454,0,0,1,257.6,218.332Zm-28.188,58.3c9.252-1.9,17.469-2.5,24.528-1.792A23.1,23.1,0,0,0,256,277.348a64.774,64.774,0,0,0-8.7,22.357A45.385,45.385,0,0,1,229.412,276.631Zm58.315,28.183c-1.9-9.264-2.5-17.483-1.793-24.536a23.18,23.18,0,0,0,2.489-2.047,63.785,63.785,0,0,0,22.344,8.7A45.482,45.482,0,0,1,287.727,304.814Z" />
	<path fill="white" d="M457.432,250.028c-.038-.189-.088-.374-.143-.558-5.939-31.16-38.641-52.455-69.569-45.425-56.75,12.5-63.631,89.707-9.979,112.026C420.959,333.6,466.544,295.783,457.432,250.028ZM402.08,307.31a45.516,45.516,0,0,1-15.307-1.824c.683-8.837,4.476-16.61,7.57-21.613a22.859,22.859,0,0,0,5.458.652A103.218,103.218,0,0,0,402.08,307.31Zm-48.047-43.441a45.769,45.769,0,0,1,1.821-15.305c8.813.689,16.593,4.5,21.606,7.6a22.862,22.862,0,0,0-.648,5.427A103.287,103.287,0,0,0,354.033,263.869Zm43.448-48.019a45.952,45.952,0,0,1,15.293,1.829c-.677,8.644-4.294,16.272-7.588,21.586a22.892,22.892,0,0,0-5.432-.651A103.184,103.184,0,0,0,397.481,215.85Zm-7.67,45.719a9.968,9.968,0,0,1,9.956-9.956c13.209.547,13.2,19.369,0,19.913A9.967,9.967,0,0,1,389.811,261.569Zm32.912-.026a103.17,103.17,0,0,0,22.77-2.273,46.047,46.047,0,0,1-1.823,15.3c-8.807-.688-16.582-4.486-21.6-7.588A22.846,22.846,0,0,0,422.723,261.543Zm20.29-15.039c-9.265,1.9-17.485,2.5-24.537,1.788a23.064,23.064,0,0,0-2.053-2.5,64.6,64.6,0,0,0,8.69-22.356A45.367,45.367,0,0,1,443.013,246.5Zm-58.3-28.174c1.9,9.256,2.5,17.47,1.791,24.519A22.969,22.969,0,0,0,384,244.911a63.784,63.784,0,0,0-22.358-8.7A45.465,45.465,0,0,1,384.715,218.33Zm-28.191,58.3c9.26-1.9,17.476-2.506,24.527-1.8a23.1,23.1,0,0,0,2.058,2.5,65.32,65.32,0,0,0-8.685,22.37A45.39,45.39,0,0,1,356.524,276.633Zm58.318,28.179c-1.9-9.263-2.5-17.483-1.792-24.537a23.116,23.116,0,0,0,2.486-2.046,63.778,63.778,0,0,0,22.342,8.709A45.489,45.489,0,0,1,414.842,304.812Z" />
</svg>
