<?xml version="1.0" encoding="UTF-8" standalone="no"?> <svg width="48" height="48" viewBox="0 0 48 48" fill="none" xmlns="http://www.w3.org/2000/svg">
<path d="M39 2H9C8.20435 2 7.44129 2.31607 6.87868 2.87868C6.31607 3.44129 6 4.20435 6 5V43C6 43.7956 6.31607 44.5587 6.87868 45.1213C7.44129 45.6839 8.20435 46 9 46H39C39.7956 46 40.5587 45.6839 41.1213 45.1213C41.6839 44.5587 42 43.7956 42 43V5C42 4.20435 41.6839 3.44129 41.1213 2.87868C40.5587 2.31607 39.7956 2 39 2ZM40 43C40 43.2652 39.8946 43.5196 39.7071 43.7071C39.5196 43.8946 39.2652 44 39 44H9C8.73478 44 8.48043 43.8946 8.29289 43.7071C8.10536 43.5196 8 43.2652 8 43V5C8 4.73478 8.10536 4.48043 8.29289 4.29289C8.48043 4.10536 8.73478 4 9 4H39C39.2652 4 39.5196 4.10536 39.7071 4.29289C39.8946 4.48043 40 4.73478 40 5V43Z" fill="white"/>
<path d="M11 8C11.5523 8 12 7.55228 12 7C12 6.44772 11.5523 6 11 6C10.4477 6 10 6.44772 10 7C10 7.55228 10.4477 8 11 8Z" fill="white"/>
<path d="M37 8C37.5523 8 38 7.55228 38 7C38 6.44772 37.5523 6 37 6C36.4477 6 36 6.44772 36 7C36 7.55228 36.4477 8 37 8Z" fill="white"/>
<path d="M11 42C11.5523 42 12 41.5523 12 41C12 40.4477 11.5523 40 11 40C10.4477 40 10 40.4477 10 41C10 41.5523 10.4477 42 11 42Z" fill="white"/>
<path d="M37 42C37.5523 42 38 41.5523 38 41C38 40.4477 37.5523 40 37 40C36.4477 40 36 40.4477 36 41C36 41.5523 36.4477 42 37 42Z" fill="white"/>
<path d="M24 32C26.5712 32 29.0846 31.2376 31.2224 29.8091C33.3603 28.3806 35.0265 26.3503 36.0104 23.9749C36.9944 21.5994 37.2518 18.9856 36.7502 16.4638C36.2486 13.9421 35.0105 11.6257 33.1924 9.80761C31.3743 7.98953 29.0579 6.7514 26.5362 6.24979C24.0144 5.74818 21.4006 6.00563 19.0251 6.98956C16.6497 7.9735 14.6194 9.63975 13.1909 11.7776C11.7624 13.9154 11 16.4288 11 19C11.004 22.4466 12.3749 25.7509 14.812 28.188C17.2491 30.6251 20.5534 31.996 24 32ZM24 8C26.1756 8 28.3023 8.64514 30.1113 9.85383C31.9202 11.0625 33.3301 12.7805 34.1627 14.7905C34.9952 16.8005 35.2131 19.0122 34.7886 21.146C34.3642 23.2798 33.3166 25.2398 31.7782 26.7782C30.2398 28.3166 28.2798 29.3642 26.146 29.7886C24.0122 30.2131 21.8005 29.9952 19.7905 29.1627C17.7805 28.3301 16.0625 26.9202 14.8538 25.1113C13.6451 23.3023 13 21.1756 13 19C13.0034 16.0837 14.1635 13.2878 16.2256 11.2256C18.2878 9.16347 21.0837 8.00344 24 8Z" fill="white"/>
<path d="M24 23C24.7911 23 25.5645 22.7654 26.2223 22.3259C26.8801 21.8864 27.3928 21.2616 27.6955 20.5307C27.9983 19.7998 28.0775 18.9956 27.9231 18.2196C27.7688 17.4437 27.3878 16.731 26.8284 16.1716C26.269 15.6122 25.5563 15.2312 24.7804 15.0769C24.0044 14.9225 23.2002 15.0017 22.4693 15.3045C21.7384 15.6072 21.1136 16.1199 20.6741 16.7777C20.2346 17.4355 20 18.2089 20 19C20 20.0609 20.4214 21.0783 21.1716 21.8284C21.9217 22.5786 22.9391 23 24 23ZM24 17C24.3956 17 24.7822 17.1173 25.1111 17.3371C25.44 17.5568 25.6964 17.8692 25.8478 18.2346C25.9991 18.6001 26.0387 19.0022 25.9616 19.3902C25.8844 19.7781 25.6939 20.1345 25.4142 20.4142C25.1345 20.6939 24.7781 20.8844 24.3902 20.9616C24.0022 21.0387 23.6001 20.9991 23.2346 20.8478C22.8692 20.6964 22.5568 20.44 22.3371 20.1111C22.1173 19.7822 22 19.3956 22 19C22 18.4696 22.2107 17.9609 22.5858 17.5858C22.9609 17.2107 23.4696 17 24 17V17Z" fill="white"/>
<path d="M31 34H29C28.7348 34 28.4804 34.1054 28.2929 34.2929C28.1054 34.4804 28 34.7348 28 35V41C28 41.2652 28.1054 41.5196 28.2929 41.7071C28.4804 41.8946 28.7348 42 29 42H31C31.7956 42 32.5587 41.6839 33.1213 41.1213C33.6839 40.5587 34 39.7956 34 39V37C34 36.2044 33.6839 35.4413 33.1213 34.8787C32.5587 34.3161 31.7956 34 31 34V34ZM32 39C32 39.2652 31.8946 39.5196 31.7071 39.7071C31.5196 39.8946 31.2652 40 31 40H30V36H31C31.2652 36 31.5196 36.1054 31.7071 36.2929C31.8946 36.4804 32 36.7348 32 37V39Z" fill="white"/>
<path d="M24 34H22C21.7348 34 21.4804 34.1054 21.2929 34.2929C21.1054 34.4804 21 34.7348 21 35V41C21 41.2652 21.1054 41.5196 21.2929 41.7071C21.4804 41.8946 21.7348 42 22 42H24C24.7956 42 25.5587 41.6839 26.1213 41.1213C26.6839 40.5587 27 39.7956 27 39V37C27 36.2044 26.6839 35.4413 26.1213 34.8787C25.5587 34.3161 24.7956 34 24 34ZM25 39C25 39.2652 24.8946 39.5196 24.7071 39.7071C24.5196 39.8946 24.2652 40 24 40H23V36H24C24.2652 36 24.5196 36.1054 24.7071 36.2929C24.8946 36.4804 25 36.7348 25 37V39Z" fill="white"/>
<path d="M19 34C18.7348 34 18.4804 34.1054 18.2929 34.2929C18.1054 34.4804 18 34.7348 18 35V37H16V35C16 34.7348 15.8946 34.4804 15.7071 34.2929C15.5196 34.1054 15.2652 34 15 34C14.7348 34 14.4804 34.1054 14.2929 34.2929C14.1054 34.4804 14 34.7348 14 35V41C14 41.2652 14.1054 41.5196 14.2929 41.7071C14.4804 41.8946 14.7348 42 15 42C15.2652 42 15.5196 41.8946 15.7071 41.7071C15.8946 41.5196 16 41.2652 16 41V39H18V41C18 41.2652 18.1054 41.5196 18.2929 41.7071C18.4804 41.8946 18.7348 42 19 42C19.2652 42 19.5196 41.8946 19.7071 41.7071C19.8946 41.5196 20 41.2652 20 41V35C20 34.7348 19.8946 34.4804 19.7071 34.2929C19.5196 34.1054 19.2652 34 19 34Z" fill="white"/>
</svg>
