<?xml version="1.0" encoding="UTF-8" standalone="no"?> <svg width="64" height="64" viewBox="0 0 64 64" fill="none" xmlns="http://www.w3.org/2000/svg">
<path d="M2 26H3C3.79565 26 4.55871 26.3161 5.12132 26.8787C5.68393 27.4413 6 28.2044 6 29C6 29.7956 5.68393 30.5587 5.12132 31.1213C4.55871 31.6839 3.79565 32 3 32H2V46H62V32H61C60.2044 32 59.4413 31.6839 58.8787 31.1213C58.3161 30.5587 58 29.7956 58 29C58 28.2044 58.3161 27.4413 58.8787 26.8787C59.4413 26.3161 60.2044 26 61 26H62V19H2V26ZM7.8 44H4V39H7.8V44ZM13.6 44H9.8V39H13.6V44ZM19.4 44H15.6V39H19.4V44ZM25.2 44H21.4V39H25.2V44ZM31 44H27.2V39H31V44ZM36.8 44H33V39H36.8V44ZM42.6 44H38.8V39H42.6V44ZM48.4 44H44.6V39H48.4V44ZM54.2 44H50.4V39H54.2V44ZM60 44H56.2V39H60V44ZM4 21H60V24.1C58.8697 24.3295 57.8535 24.9427 57.1236 25.8357C56.3937 26.7288 55.995 27.8466 55.995 29C55.995 30.1534 56.3937 31.2712 57.1236 32.1643C57.8535 33.0573 58.8697 33.6705 60 33.9V37H4V33.9C5.13029 33.6705 6.14647 33.0573 6.87638 32.1643C7.60628 31.2712 8.00501 30.1534 8.00501 29C8.00501 27.8466 7.60628 26.7288 6.87638 25.8357C6.14647 24.9427 5.13029 24.3295 4 24.1V21Z" fill="white"/>
<path d="M18 23H10V35H18V23ZM16 33H12V25H16V33Z" fill="white"/>
<path d="M28 23H20V35H28V23ZM26 33H22V25H26V33Z" fill="white"/>
<path d="M44 23H36V35H44V23ZM42 33H38V25H42V33Z" fill="white"/>
<path d="M54 23H46V35H54V23ZM52 33H48V25H52V33Z" fill="white"/>
</svg>
