<svg clip-rule="evenodd" fill-rule="evenodd" image-rendering="optimizeQuality" shape-rendering="geometricPrecision" text-rendering="geometricPrecision" version="1.1" viewBox="0 0 328 286" xmlns="http://www.w3.org/2000/svg">
	<path d="m152.5 19.5c23.352 3.521 39.519 16.188 48.5 38 5.543 22.074 2.21 42.741-10 62-10.52 16.353-23.02 31.02-37.5 44-4-3.667-8-7.333-12-11-11.201-11.529-20.867-24.196-29-38-4.548-9.184-7.715-18.851-9.5-29-2.283-28.942 9.551-49.776 35.5-62.5 4.523-1.7975 9.19-2.9641 14-3.5z" fill="#ee634d"/>
	<path d="m152.5 19.5c31.542-2.4634 53.042 11.203 64.5 41 2.867 11.3 2.867 22.633 0 34-2.229 6.788-4.729 13.454-7.5 20-6.344 10.672-13.678 20.672-22 30-7.805 9.479-16.805 17.479-27 24-2.617-1.286-4.95-2.953-7-5 14.48-12.98 26.98-27.647 37.5-44 12.21-19.259 15.543-39.926 10-62-8.981-21.812-25.148-34.479-48.5-38z" fill="#d65141"/>
	<path d="m155.5 55.5c18.099-0.5664 26.933 8.1002 26.5 26-6.468 15.98-17.634 20.48-33.5 13.5-9.585-8.7579-11.418-18.925-5.5-30.5 3.299-4.3821 7.466-7.3821 12.5-9z" fill="#191e25"/>
	<path d="m99.5 110.5c1.086 0.12 1.753 0.787 2 2-1.751 11.596-2.751 23.263-3 35v1c-21.506 10.336-42.673 21.336-63.5 33-0.3988-0.228-0.5654-0.562-0.5-1 1.5347-12.878 4.0347-25.545 7.5-38 18.818-11.324 37.985-21.991 57.5-32z" fill="#72d96f"/>
	<path d="m99.5 110.5c0.2352-0.597 0.735-0.93 1.5-1 3.796 1.816 7.63 3.483 11.5 5 8.133 13.804 17.799 26.471 29 38-14.321-0.08-28.654-1.747-43-5 0.249-11.737 1.249-23.404 3-35-0.247-1.213-0.914-1.88-2-2z" fill="#67c06d"/>
	<path d="m217.5 110.5c1.265 1.014 1.931 2.514 2 4.5 0.725 5.143 1.059 10.31 1 15.5-10.88 4.94-21.88 9.606-33 14 8.322-9.328 15.656-19.328 22-30 2.667-1.333 5.333-2.667 8-4z" fill="#74d96f"/>
	<path d="m217.5 110.5c1.101-1.098 2.434-1.265 4-0.5 8.396 4.86 16.73 9.693 25 14.5-8.539 1.505-16.873 3.505-25 6h-1c0.059-5.19-0.275-10.357-1-15.5-0.069-1.986-0.735-3.486-2-4.5z" fill="#66be6c"/>
	<path d="m246.5 124.5c9.188 4.209 17.855 9.209 26 15-16.317 3.33-32.65 6.663-49 10-0.965-6.158-1.632-12.492-2-19 8.127-2.495 16.461-4.495 25-6z" fill="#f3bf3f"/>
	<path d="m220.5 130.5h1c0.368 6.508 1.035 12.842 2 19 0.057 1.109 0.39 2.109 1 3-0.597 8.491-0.597 17.157 0 26-8.281-5.772-16.448-11.772-24.5-18-13.319 5.382-26.486 11.048-39.5 17-2.235 0.295-4.235-0.039-6-1h6v-8c10.195-6.521 19.195-14.521 27-24 11.12-4.394 22.12-9.06 33-14z" fill="#f8dc64"/>
	<path d="m272.5 139.5c3.117 0.142 5.617 1.476 7.5 4 6.04 30.572 11.54 61.239 16.5 92-23.971-27.641-47.971-55.308-72-83-0.61-0.891-0.943-1.891-1-3 16.35-3.337 32.683-6.67 49-10z" fill="#4a9fe2"/>
	<path d="m98.5 147.5c14.346 3.253 28.679 4.92 43 5 4 3.667 8 7.333 12 11 2.05 2.047 4.383 3.714 7 5v8h-6c-8.842-0.834-17.675-1.834-26.5-3-1.5 0.333-3 0.667-4.5 1 12.358 19.398 24.691 38.731 37 58v1c0.328 11.179-5e-3 22.179-1 33-20.765-31.875-41.765-63.542-63-95 0.9021-7.625 1.5688-15.291 2-23v-1z" fill="#f4bf3e"/>
	<path d="m98.5 148.5c-0.4312 7.709-1.0979 15.375-2 23-22.491 11.412-44.824 23.078-67 35 1.3067-8.852 2.9733-17.519 5-26-0.0654 0.438 0.1012 0.772 0.5 1 20.827-11.664 41.994-22.664 63.5-33z" fill="#f7dc65"/>
	<path d="m224.5 152.5c24.029 27.692 48.029 55.359 72 83 2.262 10.736 4.262 21.569 6 32.5 0.113 1.699-0.553 2.866-2 3.5-24.986-30.983-50.319-61.649-76-92v-1c-0.597-8.843-0.597-17.509 0-26z" fill="#f3bf3f"/>
	<path d="m224.5 178.5v1c1.335 19.524 3.002 39.024 5 58.5-0.105 1.592-0.439 3.092-1 4.5l-42 18c-7.966-9.634-16.633-18.634-26-27v-1-55c13.014-5.952 26.181-11.618 39.5-17 8.052 6.228 16.219 12.228 24.5 18z" fill="#72da6f"/>
	<path d="m96.5 171.5c-1.4943 23.764-3.4943 47.431-6 71-22.062 9.527-44.062 19.361-66 29.5-3.5951 1.073-5.5951-0.261-6-4 3.7222-20.501 7.3889-41.001 11-61.5 22.176-11.922 44.509-23.588 67-35z" fill="#b4e9f9"/>
	<path d="m96.5 171.5c21.235 31.458 42.235 63.125 63 95 0.841 1.879 1.175 3.879 1 6-23.142-10.574-46.476-20.574-70-30 2.5057-23.569 4.5057-47.236 6-71z" fill="#4a9fe3"/>
	<path d="m154.5 176.5c1.765 0.961 3.765 1.295 6 1v55c-12.309-19.269-24.642-38.602-37-58 1.5-0.333 3-0.667 4.5-1 8.825 1.166 17.658 2.166 26.5 3z" fill="#68c16e"/>
	<path d="m224.5 179.5c25.681 30.351 51.014 61.017 76 92-1.101 1.098-2.434 1.265-4 0.5-22.349-10.677-45.016-20.51-68-29.5 0.561-1.408 0.895-2.908 1-4.5-1.998-19.476-3.665-38.976-5-58.5z" fill="#66c06e"/>
	<path d="m160.5 233.5c9.367 8.366 18.034 17.366 26 27-8.363 4.513-17.029 8.513-26 12 0.175-2.121-0.159-4.121-1-6 0.995-10.821 1.328-21.821 1-33z" fill="#f6db64"/>
</svg>
