<svg version="1.2" xmlns="http://www.w3.org/2000/svg" viewBox="0 0 100 100" width="100" height="100">
	<title>shortcut-svg</title>
	<style>
		.s0 { fill: #ffffff } 
		.s1 { fill: #000000 } 
	</style>
	<path id="Shape 3" class="s0" d="m94.5 5.5q-5.5-5.5-13.2-5.5h-62.5q-7.8 0-13.3 5.5-5.5 5.5-5.5 13.2v62.6q0 7.7 5.5 13.2 5.5 5.5 13.3 5.5h62.5q7.7 0 13.2-5.5 5.5-5.5 5.5-13.2v-62.6q0-7.7-5.5-13.2z"/>
	<path id="Shape 4" class="s1" d="m61.8 28.3q-5.6-3.3-12.3-3.3-6.7 0-12.3 3.3-5.6 3.3-8.9 8.9-3.3 5.6-3.3 12.3 0 6.7 3.3 12.3 3.3 5.6 8.9 8.9 5.6 3.3 12.3 3.3 6.7 0 12.3-3.3 5.6-3.3 8.9-8.9 3.3-5.6 3.3-12.3 0-6.7-3.3-12.3-3.3-5.6-8.9-8.9z"/>
</svg>