<svg version="1.2" xmlns="http://www.w3.org/2000/svg" viewBox="0 0 100 100" width="100" height="100">
	<title>internal-svg</title>
	<style>
		.s0 { fill: #ffffff } 
		.s1 { fill: #000000 } 
	</style>
	<path id="Shape 3" class="s0" d="m94.5 5.5q-5.5-5.5-13.2-5.5h-62.5q-7.8 0-13.3 5.5-5.5 5.5-5.5 13.2v62.6q0 7.7 5.5 13.2 5.5 5.5 13.3 5.5h62.5q7.7 0 13.2-5.5 5.5-5.5 5.5-13.2v-62.6q0-7.7-5.5-13.2z"/>
	<path id="Shape 4" class="s1" d="m78.8 43.2q-1.2-1.2-2.9-1.2h-17.7v-17.1q0-1.6-1.2-2.8-1.2-1.1-2.9-1.1h-8.2q-1.7 0-2.9 1.1-1.2 1.2-1.2 2.8v17.1h-17.7q-1.7 0-2.9 1.2-1.2 1.1-1.2 2.7v7.9q0 1.7 1.2 2.8 1.2 1.2 2.9 1.2h17.7v17q0 1.7 1.2 2.8 1.2 1.2 2.9 1.2h8.2q1.7 0 2.9-1.2 1.2-1.1 1.2-2.8v-17h17.7q1.7 0 2.9-1.2 1.2-1.1 1.2-2.8v-7.9q0-1.6-1.2-2.7z"/>
</svg>