<svg version="1.2" xmlns="http://www.w3.org/2000/svg" viewBox="0 0 100 100" width="100" height="100">
	<title>New Project</title>
	<style>
		.s0 { fill: #000000 } 
		.s1 { fill: #ffffff } 
	</style>
	<path id="Shape 2" class="s0" d="m12 15h77v72h-77z"/>
	<path id="Shape 1" fill-rule="evenodd" class="s1" d="m80.8 55.9q-0.9 0.4-1.6 0.3-1.8 0.1-3-1.2l-9.3-9.4-34.8 34.8q-1.2 1.2-2.9 1.2-1.7 0-3-1.2l-6.6-6.6q-1.2-1.3-1.2-3 0-1.7 1.2-2.9l34.8-34.8-9.4-9.3q-2-1.9-0.9-4.6 1.1-2.5 3.8-2.5h31.3q1.7 0 2.9 1.2 1.2 1.2 1.2 2.9v31.3q0 2.7-2.5 3.8zm13.7-50.4q-5.5-5.5-13.2-5.5h-62.5q-7.8 0-13.3 5.5-5.5 5.5-5.5 13.2v62.5q0 7.8 5.5 13.3 5.5 5.5 13.3 5.5h62.5q7.7 0 13.2-5.5 5.5-5.5 5.5-13.3v-62.5q0-7.7-5.5-13.2z"/>
</svg>