<?xml version="1.0" encoding="UTF-8" standalone="no"?>
<svg
   xmlns:serif="http://www.serif.com/"
   xmlns:dc="http://purl.org/dc/elements/1.1/"
   xmlns:cc="http://creativecommons.org/ns#"
   xmlns:rdf="http://www.w3.org/1999/02/22-rdf-syntax-ns#"
   xmlns:svg="http://www.w3.org/2000/svg"
   xmlns="http://www.w3.org/2000/svg"
   xmlns:sodipodi="http://sodipodi.sourceforge.net/DTD/sodipodi-0.dtd"
   xmlns:inkscape="http://www.inkscape.org/namespaces/inkscape"
   width="286"
   height="99"
   viewBox="0 0 286 99"
   version="1.1"
   xml:space="preserve"
   style="clip-rule:evenodd;fill-rule:evenodd;stroke-linejoin:round;stroke-miterlimit:1.41420996"
   id="svg12"
   sodipodi:docname="icinga-logo-big-dark.svg"
   inkscape:version="0.92.4 (33fec40, 2019-01-16)"><metadata
   id="metadata18"><rdf:RDF><cc:Work
       rdf:about=""><dc:format>image/svg+xml</dc:format><dc:type
         rdf:resource="http://purl.org/dc/dcmitype/StillImage" /><dc:title></dc:title></cc:Work></rdf:RDF></metadata><defs
   id="defs16" /><sodipodi:namedview
   pagecolor="#ffffff"
   bordercolor="#666666"
   borderopacity="1"
   objecttolerance="10"
   gridtolerance="10"
   guidetolerance="10"
   inkscape:pageopacity="0"
   inkscape:pageshadow="2"
   inkscape:window-width="1861"
   inkscape:window-height="1025"
   id="namedview14"
   showgrid="false"
   fit-margin-top="0"
   fit-margin-left="0"
   fit-margin-right="0"
   fit-margin-bottom="0"
   inkscape:zoom="1"
   inkscape:cx="129.31112"
   inkscape:cy="88.682277"
   inkscape:window-x="59"
   inkscape:window-y="27"
   inkscape:window-maximized="1"
   inkscape:current-layer="svg12" />
    <rect
   id="icinga-logo-big-dark"
   x="0"
   y="0"
   width="286"
   height="99"
   style="fill:none" />
    <clipPath
   id="_clip1">
        <rect
   id="icinga-logo-big-dark1"
   serif:id="icinga-logo-big-dark"
   x="0"
   y="0"
   width="286"
   height="99" />
    </clipPath>
    <g
   clip-path="url(#_clip1)"
   id="g10">
        <g
   id="g8">
            <path
   id="Mask"
   d="m 78.018,47.989 c -0.819,0.818 -1.227,1.815 -1.227,2.99 v 42.179 c 0,1.178 0.422,2.174 1.266,2.992 0.844,0.818 1.827,1.227 2.953,1.227 1.176,0 2.172,-0.409 2.99,-1.227 0.818,-0.818 1.227,-1.814 1.227,-2.992 V 50.979 c 0,-1.175 -0.421,-2.172 -1.265,-2.99 -0.844,-0.818 -1.829,-1.227 -2.952,-1.227 -1.177,0 -2.175,0.409 -2.992,1.227 z m 24.197,11.771 c 0.536,-1.252 1.276,-2.339 2.224,-3.259 0.945,-0.921 2.045,-1.648 3.297,-2.185 1.251,-0.537 2.594,-0.806 4.026,-0.806 2.198,0 4.154,0.613 5.867,1.841 1.712,1.226 2.953,2.787 3.719,4.679 0.817,1.686 2.096,2.53 3.835,2.53 1.329,0 2.351,-0.435 3.067,-1.303 0.716,-0.87 1.073,-1.815 1.073,-2.839 0,-0.306 -0.037,-0.663 -0.114,-1.073 -0.077,-0.408 -0.218,-0.792 -0.422,-1.15 -0.716,-1.636 -1.648,-3.132 -2.8,-4.487 -1.149,-1.353 -2.466,-2.53 -3.948,-3.528 -1.484,-0.997 -3.095,-1.763 -4.832,-2.3 -1.738,-0.537 -3.554,-0.806 -5.445,-0.806 -2.607,0 -5.049,0.487 -7.323,1.457 -2.277,0.972 -4.256,2.301 -5.945,3.989 -1.686,1.686 -3.016,3.669 -3.987,5.942 -0.972,2.277 -1.457,4.693 -1.457,7.247 v 16.643 c 0,2.557 0.498,4.96 1.495,7.208 0.998,2.251 2.34,4.219 4.026,5.905 1.688,1.688 3.667,3.03 5.944,4.027 2.274,0.997 4.69,1.495 7.247,1.495 1.994,0 3.885,-0.281 5.676,-0.844 1.788,-0.563 3.423,-1.366 4.907,-2.415 1.483,-1.048 2.799,-2.286 3.95,-3.719 1.15,-1.431 2.058,-3.018 2.723,-4.756 0.203,-0.459 0.305,-0.996 0.305,-1.61 0,-1.022 -0.37,-1.967 -1.112,-2.837 -0.741,-0.869 -1.751,-1.304 -3.028,-1.304 -0.666,0 -1.369,0.23 -2.109,0.69 -0.742,0.461 -1.292,1.048 -1.648,1.763 -0.819,1.894 -2.085,3.465 -3.797,4.717 -1.713,1.254 -3.669,1.879 -5.867,1.879 -1.38,0 -2.696,-0.269 -3.948,-0.805 -1.255,-0.537 -2.353,-1.265 -3.299,-2.186 -0.947,-0.919 -1.7,-2.005 -2.262,-3.259 -0.563,-1.252 -0.843,-2.569 -0.843,-3.949 V 63.709 c 0,-1.38 0.268,-2.695 0.805,-3.949 m 39.457,-12.998 c -1.178,0 -2.176,0.409 -2.992,1.227 -0.819,0.818 -1.227,1.815 -1.227,2.99 v 42.179 c 0,1.178 0.421,2.174 1.265,2.992 0.844,0.818 1.828,1.227 2.954,1.227 1.174,0 2.171,-0.409 2.989,-1.227 0.818,-0.818 1.227,-1.814 1.227,-2.992 V 50.979 c 0,-1.175 -0.421,-2.172 -1.265,-2.99 -0.844,-0.818 -1.828,-1.227 -2.951,-1.227 m 43.864,3.911 c -1.687,-1.687 -3.669,-3.03 -5.943,-4.027 -2.276,-0.996 -4.692,-1.495 -7.247,-1.495 -2.558,0 -4.973,0.499 -7.247,1.495 -2.277,0.997 -4.257,2.34 -5.945,4.027 -1.686,1.687 -3.016,3.655 -3.988,5.904 -0.971,2.25 -1.456,4.654 -1.456,7.21 v 29.371 c 0,1.178 0.409,2.174 1.227,2.992 0.817,0.818 1.815,1.227 2.99,1.227 1.176,0 2.16,-0.409 2.954,-1.227 0.791,-0.818 1.187,-1.814 1.187,-2.992 V 63.787 c 0,-1.382 0.27,-2.697 0.807,-3.95 0.537,-1.252 1.265,-2.34 2.185,-3.26 0.92,-0.92 2.006,-1.649 3.259,-2.185 1.252,-0.537 2.594,-0.805 4.027,-0.805 1.43,0 2.772,0.268 4.026,0.805 1.252,0.536 2.351,1.265 3.298,2.185 0.945,0.92 1.686,2.008 2.223,3.26 0.538,1.253 0.805,2.568 0.805,3.95 v 29.371 c 0,1.178 0.423,2.174 1.267,2.992 0.842,0.818 1.827,1.227 2.952,1.227 1.175,0 2.159,-0.409 2.952,-1.227 0.792,-0.818 1.188,-1.814 1.188,-2.992 V 63.787 c 0,-2.556 -0.498,-4.96 -1.495,-7.21 -0.997,-2.249 -2.339,-4.217 -4.026,-5.904 m 47.087,19.249 h -8.359 c -1.175,0 -2.161,0.41 -2.953,1.227 -0.792,0.819 -1.188,1.79 -1.188,2.915 0,1.175 0.396,2.173 1.188,2.99 0.792,0.818 1.778,1.227 2.953,1.227 h 4.141 v 2.071 c 0,1.38 -0.268,2.697 -0.804,3.949 -0.538,1.254 -1.266,2.34 -2.186,3.259 -0.921,0.921 -2.007,1.649 -3.259,2.186 -1.255,0.536 -2.596,0.805 -4.027,0.805 -1.38,0 -2.697,-0.269 -3.949,-0.805 -1.254,-0.537 -2.353,-1.265 -3.298,-2.186 -0.946,-0.919 -1.687,-2.005 -2.224,-3.259 -0.537,-1.252 -0.806,-2.569 -0.806,-3.949 V 63.787 c 0,-1.382 0.269,-2.697 0.806,-3.95 0.537,-1.252 1.266,-2.34 2.186,-3.26 0.921,-0.92 2.006,-1.649 3.259,-2.185 1.252,-0.537 2.594,-0.805 4.026,-0.805 2.197,0 4.153,0.614 5.867,1.841 1.713,1.226 2.978,2.812 3.796,4.754 0.356,0.819 0.893,1.432 1.611,1.841 0.715,0.41 1.431,0.614 2.147,0.614 1.329,0 2.351,-0.435 3.067,-1.305 0.716,-0.868 1.073,-1.813 1.073,-2.836 0,-0.307 -0.012,-0.602 -0.038,-0.883 -0.025,-0.281 -0.089,-0.548 -0.19,-0.805 -0.717,-1.738 -1.65,-3.323 -2.8,-4.754 -1.151,-1.431 -2.481,-2.658 -3.988,-3.682 -1.509,-1.021 -3.157,-1.815 -4.947,-2.378 -1.79,-0.561 -3.656,-0.843 -5.598,-0.843 -2.557,0 -4.973,0.486 -7.247,1.457 -2.276,0.971 -4.257,2.3 -5.945,3.988 -1.685,1.687 -3.028,3.669 -4.024,5.944 -0.998,2.275 -1.497,4.691 -1.497,7.247 v 16.565 c 0,2.557 0.499,4.96 1.497,7.208 0.996,2.251 2.339,4.218 4.024,5.905 1.688,1.687 3.669,3.03 5.945,4.027 2.274,0.996 4.69,1.494 7.247,1.494 2.556,0 4.973,-0.498 7.247,-1.494 2.274,-0.997 4.257,-2.34 5.944,-4.027 1.688,-1.687 3.029,-3.654 4.026,-5.905 0.997,-2.248 1.496,-4.651 1.496,-7.208 v -6.288 c 0,-1.176 -0.41,-2.161 -1.228,-2.954 -0.818,-0.792 -1.814,-1.188 -2.991,-1.188"
   style="fill:#332931;fill-rule:nonzero"
   inkscape:connector-curvature="0" />
            <path
   d="m 257.318,75.366 c 0.561,-1.329 1.098,-2.58 1.61,-3.758 0.51,-1.175 1.022,-2.325 1.535,-3.45 0.509,-1.124 1.007,-2.263 1.494,-3.414 0.486,-1.149 1.009,-2.339 1.573,-3.566 l 6.136,14.188 z m 28.298,16.335 -18.252,-42.715 c -0.41,-0.921 -1.15,-1.636 -2.224,-2.148 -0.256,-0.154 -0.525,-0.255 -0.805,-0.307 -0.282,-0.051 -0.551,-0.077 -0.805,-0.077 -1.739,0 -3.018,0.844 -3.836,2.532 l -18.251,42.715 c -0.104,0.206 -0.18,0.461 -0.23,0.768 -0.052,0.306 -0.077,0.587 -0.077,0.843 0,0.972 0.369,1.906 1.112,2.799 0.74,0.896 1.751,1.342 3.03,1.342 0.816,0 1.558,-0.204 2.224,-0.613 0.663,-0.41 1.2,-1.048 1.609,-1.917 0.768,-1.892 1.547,-3.744 2.34,-5.561 0.792,-1.814 1.596,-3.668 2.415,-5.559 h 19.404 l 4.754,11.12 c 0.664,1.687 1.942,2.53 3.835,2.53 1.276,0 2.286,-0.446 3.028,-1.342 0.741,-0.893 1.113,-1.827 1.113,-2.799 0,-0.461 -0.129,-0.997 -0.384,-1.611 z M 80.591,27.652 c -3.479,0.263 -6.084,3.296 -5.824,6.771 0.04,0.528 0.15,1.032 0.309,1.512 l -25.644,6.324 c -0.448,-2.481 -1.51,-4.889 -3.214,-6.981 -1.378,-1.69 -3.042,-3.006 -4.861,-3.949 l 7.524,-15.638 c 2.492,0.786 5.32,0.345 7.498,-1.426 3.439,-2.806 3.953,-7.868 1.152,-11.306 -2.805,-3.439 -7.869,-3.955 -11.307,-1.154 -3.439,2.803 -3.958,7.866 -1.151,11.306 0.761,0.936 1.694,1.645 2.712,2.141 L 40.289,30.83 c -5.101,-2.164 -11.2,-1.509 -15.791,2.232 -0.502,0.409 -0.959,0.851 -1.395,1.307 l -8.264,-6.765 c 0.67,-1.262 0.757,-2.81 0.084,-4.19 -1.118,-2.286 -3.88,-3.234 -6.165,-2.114 -2.286,1.122 -3.234,3.881 -2.116,6.165 1.12,2.286 3.879,3.236 6.167,2.117 0.525,-0.258 0.971,-0.611 1.345,-1.017 l 8.158,6.678 c -4.565,5.559 -4.749,13.743 -0.022,19.531 1.105,1.357 2.397,2.461 3.801,3.337 l -9.434,13.526 c -1.946,-1.468 -4.411,-2.271 -7.034,-2.072 -5.73,0.43 -10.025,5.422 -9.593,11.147 0.429,5.731 5.422,10.024 11.151,9.593 5.728,-0.43 10.02,-5.424 9.59,-11.151 -0.201,-2.678 -1.407,-5.033 -3.211,-6.749 l 9.553,-13.698 c 4.544,2.368 10.082,2.348 14.679,-0.229 l 5.378,8.984 c -0.723,0.512 -1.238,1.307 -1.347,2.255 -0.207,1.776 1.065,3.382 2.842,3.588 1.774,0.202 3.378,-1.068 3.586,-2.845 0.204,-1.773 -1.066,-3.379 -2.843,-3.584 -0.403,-0.047 -0.794,-0.008 -1.164,0.086 l -5.44,-9.088 c 0.409,-0.273 0.811,-0.564 1.201,-0.881 4.181,-3.411 6.104,-8.564 5.59,-13.559 l 25.964,-6.403 c 1.163,2.073 3.45,3.404 5.977,3.214 3.478,-0.258 6.085,-3.291 5.823,-6.767 C 87.097,30 84.066,27.393 80.591,27.652"
   style="fill:#332931;fill-rule:nonzero"
   id="path6"
   inkscape:connector-curvature="0" />
        </g>
    </g>
</svg>