<?xml version="1.0" encoding="UTF-8" standalone="no"?>
<svg
   xmlns:svg="http://www.w3.org/2000/svg"
   xmlns="http://www.w3.org/2000/svg"
   version="1.1"
   width="238"
   height="293"
   style="fill:none;stroke-width:7.31760454;stroke-linecap:round"
   id="animatedLogo-0">
  <path
     d="m 87.60898,85.366999 v 41.253721 l 41.9579,-0.0431 c 0.53283,0 1.019,-0.0144 1.50271,-0.0455 11.03212,-0.72602 19.65549,-9.75693 19.65549,-20.55857 0,-11.364718 -9.47049,-20.606491 -21.11645,-20.606491 z M 46.112691,289.12688 c -22.916263,0 -41.4962877,-18.12892 -41.4962877,-40.49415 v -77.17611 c -0.1497795,-1.39933 -0.2308077,-2.82262 -0.2308077,-4.26267 -0.00245,-1.46642 0.076117,-2.91367 0.2308077,-4.34174 V 44.872843 c 0,-22.365234 18.5800247,-40.496552 41.4962877,-40.496552 h 83.495939 c 57.40729,0 104.11148,45.576292 104.11148,101.597199 0,53.263 -42.63068,97.785 -97.05221,101.35999 -2.31298,0.15575 -4.69718,0.23482 -7.05927,0.23482 l -41.99965,0.0407 v 41.0237 c 0,22.36523 -18.577569,40.49415 -41.496289,40.49415 z"
     style="fill:#a2ddef"
     id="Fill-1" />
  <path
     d="m 87.60898,85.366999 v 41.253721 l 41.9579,-0.0431 c 0.53283,0 1.019,-0.0144 1.50271,-0.0455 11.03212,-0.72602 19.65549,-9.75693 19.65549,-20.55857 0,-11.364718 -9.47049,-20.606491 -21.11645,-20.606491 z M 4.6164033,248.63273 V 44.872843 c 0,-22.365234 18.5800247,-40.496552 41.4962877,-40.496552 h 83.495939 c 57.40729,0 104.11148,45.576292 104.11148,101.597199 0,53.263 -42.63068,97.785 -97.05221,101.35999 -2.31298,0.15575 -4.69718,0.23482 -7.05927,0.23482 l -41.99965,0.0407 v 41.0237 c 0,22.36523 -18.577569,40.49415 -41.496289,40.49416 -22.916263,2e-5 -41.4962877,-18.1289 -41.4962877,-40.49413 z"
     style="stroke:#368bd6"
     id="Stroke-3" />
  <path
     d="M 46.112937,248.63201 V 44.872124 h 83.495933 c 34.57942,0 62.61274,27.356318 62.61274,61.100646 0,32.34501 -25.75471,58.81956 -58.34034,60.95928 -1.41431,0.0934 -2.83599,0.14137 -4.2724,0.14137 l -83.726741,0.0815"
     style="stroke:#368bd6"
     id="Stroke-5" />
  <path
     d="m 80.306369,21.647887 c 6.361946,8.858396 8.805071,19.607318 6.880036,30.253208 C 85.258915,62.554173 79.194073,71.834283 70.109086,78.037796 51.352273,90.844971 25.406044,86.385822 12.2721,68.096361 5.9101545,59.237965 3.4670298,48.491439 5.3945201,37.840757 7.319555,27.190075 13.384397,17.907569 22.471839,11.706452 41.228652,-1.1007233 67.172426,3.3584261 80.306369,21.647887 Z M 192.56316,289.10364 c -13.07747,0 -25.94378,-6.01422 -34.01959,-17.25914 L 99.8963,190.17091 c -13.151131,-18.31582 -8.596361,-43.56836 10.17027,-56.3995 18.76664,-12.84072 44.64412,-8.39355 57.79525,9.92227 l 58.64727,81.6736 c 13.15358,18.31581 8.59881,43.56835 -10.16782,56.39949 -7.24835,4.95754 -15.55497,7.33687 -23.77811,7.33687 z"
     style="fill:#368bd6"
     id="Combined-Shape" />
</svg>
