<?xml version="1.0" encoding="UTF-8" standalone="no"?>
<!-- Created with Inkscape (http://www.inkscape.org/) -->

<svg
   xmlns:dc="http://purl.org/dc/elements/1.1/"
   xmlns:cc="http://creativecommons.org/ns#"
   xmlns:rdf="http://www.w3.org/1999/02/22-rdf-syntax-ns#"
   xmlns:svg="http://www.w3.org/2000/svg"
   xmlns="http://www.w3.org/2000/svg"
   xmlns:sodipodi="http://sodipodi.sourceforge.net/DTD/sodipodi-0.dtd"
   xmlns:inkscape="http://www.inkscape.org/namespaces/inkscape"
   width="93.36132mm"
   height="41.505035mm"
   id="svg34935"
   sodipodi:version="0.32"
   inkscape:version="0.92.4 (33fec40, 2019-01-16)"
   sodipodi:docname="sympa7_final.svg"
   inkscape:output_extension="org.inkscape.output.svg.inkscape"
   version="1.1"
   inkscape:export-filename="/home/olivier/Images/logos/sympa/sympa7/z1-sympa-final_font-compare.png"
   inkscape:export-xdpi="259"
   inkscape:export-ydpi="259">
  <sodipodi:namedview
     id="base"
     pagecolor="#ffffff"
     bordercolor="#666666"
     borderopacity="1.0"
     inkscape:pageopacity="0.0"
     inkscape:pageshadow="2"
     inkscape:zoom="2"
     inkscape:cx="282.58254"
     inkscape:cy="24.278076"
     inkscape:document-units="px"
     inkscape:current-layer="g30546"
     showgrid="false"
     inkscape:window-width="1861"
     inkscape:window-height="1025"
     inkscape:window-x="59"
     inkscape:window-y="27"
     inkscape:window-maximized="1"
     showguides="true"
     fit-margin-top="0"
     fit-margin-left="0"
     fit-margin-right="0"
     fit-margin-bottom="0"
     inkscape:guide-bbox="true">
    <inkscape:grid
       type="xygrid"
       id="grid4722"
       originx="-700.31269"
       originy="905.1756"
       spacingx="1"
       spacingy="1" />
  </sodipodi:namedview>
  <defs
     id="defs34937">
    <marker
       inkscape:stockid="Arrow1Lstart"
       orient="auto"
       refY="0"
       refX="0"
       id="marker10282"
       style="overflow:visible"
       inkscape:isstock="true">
      <path
         id="path10026"
         d="M 0,0 5,-5 -12.5,0 5,5 Z"
         style="fill:#000000;fill-opacity:1;fill-rule:evenodd;stroke:#000000;stroke-width:1.00000003pt;stroke-opacity:1"
         transform="matrix(0.8,0,0,0.8,10,0)"
         inkscape:connector-curvature="0" />
    </marker>
    <marker
       inkscape:isstock="true"
       style="overflow:visible"
       id="Arrow1Lstart"
       refX="0"
       refY="0"
       orient="auto"
       inkscape:stockid="Arrow1Lstart">
      <path
         inkscape:connector-curvature="0"
         transform="matrix(0.8,0,0,0.8,10,0)"
         style="fill:#000000;fill-opacity:1;fill-rule:evenodd;stroke:#000000;stroke-width:1.00000003pt;stroke-opacity:1"
         d="M 0,0 5,-5 -12.5,0 5,5 Z"
         id="path5627" />
    </marker>
    <inkscape:perspective
       sodipodi:type="inkscape:persp3d"
       inkscape:vp_x="0 : 561.25983 : 1"
       inkscape:vp_y="0 : 1066.6667 : 0"
       inkscape:vp_z="793.70078 : 561.25983 : 1"
       inkscape:persp3d-origin="396.85039 : 374.17322 : 1"
       id="perspective34943" />
    <clipPath
       id="clipPath">
      <path
         inkscape:connector-curvature="0"
         inkscape:export-ydpi="44.923401"
         inkscape:export-xdpi="44.923401"
         inkscape:export-filename="/www/home/htmlssl/wikitest/lib/tpl/sympa/images/sympa_logo.png"
         style="fill:#ff1b1b;fill-opacity:1;fill-rule:evenodd;stroke:#ff1b1b;stroke-width:2.15774751;stroke-linecap:butt;stroke-linejoin:miter;stroke-miterlimit:4;stroke-dasharray:none;stroke-opacity:1"
         d="m 1055.6321,-603.95983 c 0,0 -1.2921,-2.77272 -39.9143,8.94717 -38.60918,11.71595 -37.25308,15.24809 -37.25308,15.24809 0,0 41.64038,17.6367 49.06528,15.93106 5.5132,-1.26652 28.1021,-40.12632 28.1021,-40.12632 z"
         id="path24628"
         sodipodi:nodetypes="cscsc" />
    </clipPath>
    <filter
       id="filter"
       height="2"
       width="2"
       x="-0.5"
       y="-0.5">
      <feGaussianBlur
         stdDeviation="1.0"
         id="feGaussianBlur42455" />
    </filter>
    <clipPath
       id="clipPathC">
      <path
         inkscape:connector-curvature="0"
         inkscape:export-ydpi="44.923401"
         inkscape:export-xdpi="44.923401"
         inkscape:export-filename="/www/home/htmlssl/wikitest/lib/tpl/sympa/images/sympa_logo.png"
         style="fill:#c9e235;fill-opacity:1;fill-rule:evenodd;stroke:#c9e235;stroke-width:2.15774751;stroke-linecap:butt;stroke-linejoin:miter;stroke-miterlimit:4;stroke-dasharray:none;stroke-opacity:1"
         d="m 1036.0226,-476.29555 c 0,0 -2.087,2.23647 -35.1833,-20.8647 -33.08518,-23.0934 -30.70218,-26.03217 -30.70218,-26.03217 0,0 45.05478,-3.87872 51.58678,0.0418 4.8503,2.91114 14.2987,46.85507 14.2987,46.85507 z"
         id="path24616"
         sodipodi:nodetypes="cscsc" />
    </clipPath>
    <filter
       y="-0.5"
       x="-0.5"
       width="2"
       height="2"
       id="filterD">
      <feGaussianBlur
         id="feGaussianBlur42718"
         stdDeviation="1.0" />
    </filter>
    <clipPath
       id="clipPath7">
      <path
         inkscape:connector-curvature="0"
         inkscape:export-ydpi="150.12862"
         inkscape:export-xdpi="150.12862"
         inkscape:export-filename="/tmp/enveloppes.png"
         style="fill:#78e5fb;fill-opacity:1;fill-rule:evenodd;stroke:#78e5fb;stroke-width:2.15774751;stroke-linecap:butt;stroke-linejoin:miter;stroke-miterlimit:4;stroke-dasharray:none;stroke-opacity:1"
         d="m 1075.9911,-600.72896 c 0,0 2.087,-2.23648 35.1833,20.86469 33.0852,23.09339 30.7022,26.03216 30.7022,26.03216 0,0 -45.0547,3.87873 -51.5868,-0.0418 -4.8502,-2.91114 -14.2987,-46.85506 -14.2987,-46.85506 z"
         id="path2601"
         sodipodi:nodetypes="cscsc" />
    </clipPath>
    <filter
       id="filterN"
       height="2"
       width="2"
       x="-0.5"
       y="-0.5">
      <feGaussianBlur
         stdDeviation="1.0"
         id="feGaussianBlur5294" />
    </filter>
    <clipPath
       id="clipPathP">
      <path
         inkscape:connector-curvature="0"
         inkscape:export-ydpi="150.12862"
         inkscape:export-xdpi="150.12862"
         inkscape:export-filename="/tmp/enveloppes.png"
         style="fill:#ed8029;fill-opacity:1;fill-rule:evenodd;stroke:#ed8029;stroke-width:2.15774751;stroke-linecap:butt;stroke-linejoin:miter;stroke-miterlimit:4;stroke-dasharray:none;stroke-opacity:1"
         d="m 1057.0243,-472.77416 c 0,0 1.2921,2.77273 39.9144,-8.94713 38.6091,-11.71597 37.253,-15.24811 37.253,-15.24811 0,0 -41.6404,-17.63669 -49.0653,-15.93107 -5.5132,1.26653 -28.1021,40.12631 -28.1021,40.12631 z"
         id="path24620"
         sodipodi:nodetypes="cscsc" />
    </clipPath>
    <filter
       y="-0.5"
       x="-0.5"
       width="2"
       height="2"
       id="filteru">
      <feGaussianBlur
         id="feGaussianBlur6194"
         stdDeviation="1.0" />
    </filter>
    <filter
       id="filter9465"
       inkscape:label="Greyscale"
       style="color-interpolation-filters:sRGB">
      <feColorMatrix
         id="feColorMatrix9467"
         values="0.22 0.72 0.07 -2.77556e-17 0 0.22 0.72 0.07 -2.77556e-17 0 0.22 0.72 0.07 -2.77556e-17 0 0 0 0 1 0 " />
    </filter>
    <filter
       id="filter9469"
       inkscape:label="Greyscale"
       style="color-interpolation-filters:sRGB">
      <feColorMatrix
         id="feColorMatrix9471"
         values="0.22 0.72 0.07 -2.77556e-17 0 0.22 0.72 0.07 -2.77556e-17 0 0.22 0.72 0.07 -2.77556e-17 0 0 0 0 1 0 " />
    </filter>
    <filter
       id="filter9473"
       inkscape:label="Greyscale"
       style="color-interpolation-filters:sRGB">
      <feColorMatrix
         id="feColorMatrix9475"
         values="0.22 0.72 0.07 -2.77556e-17 0 0.22 0.72 0.07 -2.77556e-17 0 0.22 0.72 0.07 -2.77556e-17 0 0 0 0 1 0 " />
    </filter>
    <filter
       id="filter9477"
       inkscape:label="Greyscale"
       style="color-interpolation-filters:sRGB">
      <feColorMatrix
         id="feColorMatrix9479"
         values="0.22 0.72 0.07 -2.77556e-17 0 0.22 0.72 0.07 -2.77556e-17 0 0.22 0.72 0.07 -2.77556e-17 0 0 0 0 1 0 " />
    </filter>
    <filter
       style="color-interpolation-filters:sRGB"
       inkscape:label="Lightness-Contrast"
       id="filter12621">
      <feColorMatrix
         values="1.5 0 0 0.0625 -0.25 0 1.5 0 0.0625 -0.25 0 0 1.5 0.0625 -0.25 0 0 0 1 0"
         id="feColorMatrix12623" />
    </filter>
    <filter
       style="color-interpolation-filters:sRGB"
       inkscape:label="Lightness-Contrast"
       id="filter12625">
      <feColorMatrix
         values="1.5 0 0 0.0625 -0.25 0 1.5 0 0.0625 -0.25 0 0 1.5 0.0625 -0.25 0 0 0 1 0"
         id="feColorMatrix12627" />
    </filter>
    <filter
       style="color-interpolation-filters:sRGB"
       inkscape:label="Lightness-Contrast"
       id="filter12629">
      <feColorMatrix
         values="1.5 0 0 0.0625 -0.25 0 1.5 0 0.0625 -0.25 0 0 1.5 0.0625 -0.25 0 0 0 1 0"
         id="feColorMatrix12631" />
    </filter>
    <filter
       style="color-interpolation-filters:sRGB"
       inkscape:label="Lightness-Contrast"
       id="filter12633">
      <feColorMatrix
         values="1.5 0 0 0.0625 -0.25 0 1.5 0 0.0625 -0.25 0 0 1.5 0.0625 -0.25 0 0 0 1 0"
         id="feColorMatrix12635" />
    </filter>
    <filter
       style="color-interpolation-filters:sRGB"
       inkscape:label="Lightness-Contrast"
       id="filter12637">
      <feColorMatrix
         values="1.5 0 0 0.0625 -0.25 0 1.5 0 0.0625 -0.25 0 0 1.5 0.0625 -0.25 0 0 0 1 0"
         id="feColorMatrix12639" />
    </filter>
    <filter
       style="color-interpolation-filters:sRGB"
       inkscape:label="Lightness-Contrast"
       id="filter12641">
      <feColorMatrix
         values="1.5 0 0 0.0625 -0.25 0 1.5 0 0.0625 -0.25 0 0 1.5 0.0625 -0.25 0 0 0 1 0"
         id="feColorMatrix12643" />
    </filter>
    <filter
       style="color-interpolation-filters:sRGB"
       inkscape:label="Lightness-Contrast"
       id="filter12645">
      <feColorMatrix
         values="1.5 0 0 0.0625 -0.25 0 1.5 0 0.0625 -0.25 0 0 1.5 0.0625 -0.25 0 0 0 1 0"
         id="feColorMatrix12647" />
    </filter>
    <filter
       style="color-interpolation-filters:sRGB"
       inkscape:label="Lightness-Contrast"
       id="filter12649">
      <feColorMatrix
         values="1.5 0 0 0.0625 -0.25 0 1.5 0 0.0625 -0.25 0 0 1.5 0.0625 -0.25 0 0 0 1 0"
         id="feColorMatrix12651" />
    </filter>
  </defs>
  <metadata
     id="metadata34940">
    <rdf:RDF>
      <cc:Work
         rdf:about="">
        <dc:format>image/svg+xml</dc:format>
        <dc:type
           rdf:resource="http://purl.org/dc/dcmitype/StillImage" />
        <dc:title></dc:title>
      </cc:Work>
    </rdf:RDF>
  </metadata>
  <g
     transform="translate(-367.15471,-1694.9816)"
     inkscape:label="Calque 1"
     inkscape:groupmode="layer"
     id="layer1">
    <g
       id="g11879">
      <g
         id="g5315">
        <g
           id="g5121">
          <g
             id="g4927">
            <g
               id="g4734">
              <g
                 inkscape:export-ydpi="43.061451"
                 inkscape:export-xdpi="43.061451"
                 inkscape:export-filename="/www/home/htmlssl/wiki/data/media/documents_partages/logos/sympa/sympa_multi_150x121.png"
                 id="g30546"
                 style="fill:#ffffff;fill-opacity:1"
                 transform="matrix(-1.6573124,-0.2630051,-0.2630051,1.6573124,1777.4673,1298.1908)">
                <g
                   id="g581"
                   transform="translate(165.64786,869.63656)">
                  <text
                     xml:space="preserve"
                     style="font-style:normal;font-weight:normal;line-height:0%;font-family:sans-serif;letter-spacing:0px;word-spacing:0px;fill:#000000;fill-opacity:1;stroke:none;stroke-width:1px;stroke-linecap:butt;stroke-linejoin:miter;stroke-opacity:1"
                     x="-459.07132"
                     y="-560.0564"
                     id="text4382"
                     transform="matrix(-0.9876411,-0.15673246,-0.15673246,0.9876411,0,0)"><tspan
                       style="font-size:23.83717346px;line-height:1.25"
                       sodipodi:role="line"
                       id="tspan4384"
                       x="-459.07132"
                       y="-560.0564"> </tspan></text>
                  <g
                     id="g6736"
                     transform="translate(-639.92198,-639.93702)"
                     inkscape:export-xdpi="127.07135"
                     inkscape:export-ydpi="127.07135"
                     style="fill:#ee304d;fill-opacity:1;stroke:none;stroke-width:1.19185865;stroke-miterlimit:4;stroke-dasharray:none;stroke-opacity:1">
                    <path
                       inkscape:connector-curvature="0"
                       id="path6738"
                       style="font-style:normal;font-variant:normal;font-weight:normal;font-stretch:normal;font-size:medium;line-height:125%;font-family:Smoothy;-inkscape-font-specification:Smoothy;text-align:start;letter-spacing:0.16194867px;word-spacing:0px;writing-mode:lr-tb;text-anchor:start;fill:#ee304d;fill-opacity:1;stroke:none;stroke-width:1.19185865;stroke-linecap:butt;stroke-linejoin:miter;stroke-miterlimit:4;stroke-dasharray:none;stroke-opacity:1"
                       d="m 1180.1256,168.75799 q -2.1883,-0.34728 -4.2364,0.18874 -2.0418,0.49602 -3.6052,1.76496 -1.5572,1.22895 -2.279,3.00048 -0.064,0.15378 -0.1025,0.39374 -0.095,0.59992 0.2775,1.02808 0.34,0.38197 1.0043,0.4874 l 1.5241,0.24185 q 0.6643,0.10542 1.0604,-0.11872 0.3634,-0.27035 0.8684,-0.92823 0.7385,-0.86685 2.0451,-1.27452 1.2675,-0.41388 2.7134,-0.18443 1.9148,0.30387 3.1957,1.57318 1.2417,1.2631 1.0196,2.6629 -0.2031,1.27982 -1.6132,1.83507 -1.4429,0.50905 -4.9232,0.9818 -2.8687,0.40578 -4.8386,0.9542 -2.0027,0.50222 -3.6306,1.92495 -1.6671,1.41652 -2.0732,3.97616 -0.3745,2.35967 0.7149,4.58264 1.0958,2.18297 3.2955,3.72109 2.1997,1.53812 5.0133,1.98462 2.4619,0.39069 4.7898,-0.14191 2.2953,-0.5788 4.0341,-1.94292 1.6997,-1.37033 2.4797,-3.25563 0.064,-0.15378 0.1089,-0.43374 0.095,-0.59992 -0.2448,-0.98189 -0.34,-0.38197 -1.0434,-0.49359 l -1.485,-0.23565 q -0.6643,-0.10543 -1.0668,0.15872 -0.3961,0.22415 -0.862,0.88823 -0.8157,1.10061 -2.4603,1.61865 -1.6446,0.51804 -3.5203,0.22038 -1.5631,-0.24806 -2.842,-1.02503 -1.2789,-0.77697 -1.9144,-1.82087 -0.6747,-1.0501 -0.5033,-2.12994 0.1396,-0.87988 0.821,-1.38678 0.6486,-0.55309 1.9816,-0.87457 1.333,-0.32148 3.831,-0.6631 2.8687,-0.40579 4.8323,-0.91421 1.9699,-0.54842 3.5915,-1.93115 1.6216,-1.38272 2.0214,-3.90237 0.3491,-2.19969 -0.6094,-4.23788 -0.9522,-2.07818 -2.891,-3.4929 -1.9779,-1.42092 -4.4789,-1.81781 z"
                       inkscape:export-xdpi="153"
                       inkscape:export-ydpi="153" />
                    <path
                       style="font-style:normal;font-variant:normal;font-weight:normal;font-stretch:normal;font-size:medium;line-height:125%;font-family:Smoothy;-inkscape-font-specification:Smoothy;text-align:start;letter-spacing:0.16194867px;word-spacing:0px;writing-mode:lr-tb;text-anchor:start;fill:#ee304d;fill-opacity:1;stroke:none;stroke-width:2;stroke-linecap:butt;stroke-linejoin:miter;stroke-miterlimit:4;stroke-dasharray:none;stroke-opacity:1"
                       d="m 364.93555,438.4375 c -0.70828,-10e-6 -1.26187,0.15748 -1.66016,0.47461 -0.39857,0.27178 -0.59786,0.65791 -0.59766,1.15625 -10e-6,0.49832 0.19935,1.06305 0.59766,1.69726 l 11.38477,16.5 4.70507,-6.41992 -8.05664,-11.71093 c -0.44265,-0.58892 -0.92979,-1.01921 -1.46093,-1.29102 -0.48687,-0.27175 -1.0847,-0.40622 -1.79297,-0.40625 z m 32.33398,0 c -0.70828,0 -1.30615,0.13443 -1.79297,0.40625 -0.48698,0.2265 -0.95197,0.63568 -1.39453,1.22461 l -8.25,11.29492 -8.17969,11.26367 c 0.58492,0.89083 0.89259,1.90591 0.89258,3.0586 v 17.59961 c 3e-5,1.81207 0.88573,2.71875 2.65625,2.71875 h 2.125 c 1.77053,-1e-5 2.65628,-0.90669 2.65625,-2.71875 v -17.59961 c -4e-5,-1.22316 0.37648,-2.3565 1.12891,-3.39844 l 15.0039,-20.52149 c 0.48712,-0.63419 0.73068,-1.19892 0.73047,-1.69726 2e-5,-0.49832 -0.22138,-0.88443 -0.66406,-1.15625 -0.39834,-0.31708 -0.95199,-0.47459 -1.66016,-0.47461 z"
                       id="path6740"
                       inkscape:export-xdpi="153"
                       inkscape:export-ydpi="153"
                       transform="matrix(-0.58856431,-0.09340147,-0.09340147,0.58856431,1418.7843,-57.505098)"
                       inkscape:connector-curvature="0" />
                    <path
                       style="font-style:normal;font-variant:normal;font-weight:normal;font-stretch:normal;font-size:medium;line-height:125%;font-family:Smoothy;-inkscape-font-specification:Smoothy;text-align:start;letter-spacing:0.16194867px;word-spacing:0px;writing-mode:lr-tb;text-anchor:start;fill:#ee304d;fill-opacity:1;stroke:none;stroke-width:2;stroke-linecap:butt;stroke-linejoin:miter;stroke-miterlimit:4;stroke-dasharray:none;stroke-opacity:1"
                       d="m 417.25586,438.43555 c -1.77052,-10e-6 -2.65433,0.90667 -2.6543,2.71875 v 42.13086 c -8e-5,1.81204 0.88378,2.71874 2.6543,2.71875 h 2.125 c 1.77052,0 2.65628,-0.90668 2.65625,-2.71875 v -17.80274 c 2.8e-4,-0.72478 0.11068,-1.2915 0.33203,-1.69922 0.26553,-0.40773 0.59773,-0.61134 0.99609,-0.61132 0.70828,1e-5 1.28399,0.56472 1.72657,1.69726 l 7.83398,19.02734 c 0.57535,1.40435 1.59396,2.10742 3.05469,2.10743 h 3.71875 c 1.46062,-1e-5 2.47726,-0.70309 3.05273,-2.10743 l 7.83594,-19.02734 c 0.0303,-0.0776 0.0661,-0.13089 0.0977,-0.20312 l 10.21484,-24.72852 c -0.33833,-0.99962 -1.16349,-1.5 -2.47851,-1.5 v -0.002 h -2.92188 c -1.46062,1e-5 -2.47922,0.70308 -3.05469,2.10742 l -12.81445,31.25781 c -0.48692,1.13256 -1.08481,1.69924 -1.79297,1.69922 -0.70828,0 -1.30415,-0.56668 -1.79101,-1.69922 l -12.81446,-31.25781 c -0.57546,-1.40436 -1.59396,-2.10742 -3.05469,-2.10742 h -2.92187 z m 43.82226,14.03906 -7.4375,18.16016 v 12.65039 c -8e-5,1.81205 0.88562,2.71874 2.65626,2.71875 h 2.125 c 1.77052,-1e-5 2.65616,-0.90671 2.65624,-2.71875 z"
                       id="path6742"
                       inkscape:export-xdpi="153"
                       inkscape:export-ydpi="153"
                       transform="matrix(-0.58856431,-0.09340147,-0.09340147,0.58856431,1418.7843,-57.505098)"
                       inkscape:connector-curvature="0" />
                    <path
                       sodipodi:nodetypes="cccccsccccccccccssccsscccccscc"
                       style="font-style:normal;font-variant:normal;font-weight:normal;font-stretch:normal;font-size:medium;line-height:125%;font-family:Smoothy;-inkscape-font-specification:Smoothy;text-align:start;letter-spacing:0.16194867px;word-spacing:0px;writing-mode:lr-tb;text-anchor:start;fill:#ee304d;fill-opacity:1;stroke:none;stroke-width:2;stroke-linecap:butt;stroke-linejoin:miter;stroke-miterlimit:4;stroke-dasharray:none;stroke-opacity:1"
                       d="m 475.04883,438.4375 c -1.77058,-10e-6 -2.65438,0.90471 -2.6543,2.7168 v 4.89258 h 7.43359 0.60938 c 0.40516,1.4e-4 0.98979,-10e-6 2.04883,0 h 11.28711 c 1.81475,-2e-5 3.18575,0.61283 4.11523,1.83593 0.97382,1.22316 1.46097,2.71763 1.46094,4.48438 8e-5,1.81208 -0.48643,3.35277 -1.46094,4.62109 -0.92962,1.22313 -2.32271,1.83396 -4.18164,1.83399 h -11.2207 l -2.65625,0.004 v -0.0293 h -7.43555 v 24.48828 c 8e-5,1.81208 0.88372,2.71874 2.6543,2.71875 h 2.125 c 1.77058,0 2.65633,-0.90669 2.65625,-2.71875 v -14.13477 c -9e-5,-1.81207 0.88567,-2.7168 2.65625,-2.7168 h 11.2207 c 2.47875,0 4.71326,-0.58974 6.70508,-1.76757 1.99187,-1.22314 3.5419,-2.89817 4.64844,-5.02735 1.15088,-2.12917 1.7266,-4.55339 1.72656,-7.27148 -10e-5,-2.67281 -0.57574,-5.07395 -1.72656,-7.20313 -1.10648,-2.12916 -2.65666,-3.78311 -4.64844,-4.96094 -1.99194,-1.17786 -4.20427,-1.76564 -6.63867,-1.76562 h -18.72461 z"
                       id="path6744"
                       inkscape:export-xdpi="153"
                       inkscape:export-ydpi="153"
                       transform="matrix(-0.58856431,-0.09340147,-0.09340147,0.58856431,1418.7843,-57.505098)"
                       inkscape:connector-curvature="0" />
                    <path
                       style="font-style:normal;font-variant:normal;font-weight:normal;font-stretch:normal;font-size:medium;line-height:125%;font-family:Smoothy;-inkscape-font-specification:Smoothy;text-align:start;letter-spacing:0.16194867px;word-spacing:0px;writing-mode:lr-tb;text-anchor:start;fill:#ee304d;fill-opacity:1;stroke:none;stroke-width:2;stroke-linecap:butt;stroke-linejoin:miter;stroke-miterlimit:4;stroke-dasharray:none;stroke-opacity:1"
                       d="m 529.48242,438.4375 c -1.50501,-2e-5 -2.52361,0.70111 -3.05469,2.10547 l -16.53125,42.33398 c -0.17684,0.40776 -0.26706,0.83809 -0.26757,1.29102 -1e-5,0.58892 0.1992,1.04225 0.59765,1.35937 0.39834,0.31711 0.97412,0.47658 1.72656,0.47657 h 2.78907 c 1.5049,-1e-5 2.5235,-0.70308 3.05469,-2.10743 l 2.25781,-5.70703 c 0.0105,-0.0277 0.0243,-0.0509 0.0351,-0.0781 l 4.86524,-12.38477 c 0.0429,-0.24018 0.10669,-0.48036 0.21094,-0.7207 l 4.44921,-11.41602 c 0.11066,-0.28313 0.23131,-0.52983 0.36133,-0.74218 8.3e-4,-0.001 0.001,-0.003 0.002,-0.004 l 5.40234,-13.75195 c -0.53457,-0.43117 -1.21359,-0.65396 -2.04688,-0.6543 h -0.002 -3.84961 z m 8.77735,6.89844 -4.13672,10.62109 3.52539,9.04883 c 0.17724,0.40774 0.26576,0.81496 0.26562,1.22266 -10e-6,0.58892 -0.22143,1.06532 -0.66406,1.42773 -0.3984,0.3171 -0.97411,0.47656 -1.72656,0.47656 h -6.1875 l -3.09571,7.94922 h 13.4668 c 1.50491,-10e-6 2.52351,0.70307 3.05469,2.10742 l 2.25586,5.70703 c 0.53117,1.40436 1.54978,2.10744 3.05469,2.10743 h 2.78906 c 0.75245,0 1.32816,-0.15946 1.72656,-0.47657 0.39774,-0.31722 0.5971,-0.77055 0.59766,-1.35937 -4e-5,-0.45303 -0.0886,-0.88331 -0.26563,-1.29102 z"
                       id="path6746"
                       transform="matrix(-0.58856431,-0.09340147,-0.09340147,0.58856431,1418.7843,-57.505098)"
                       inkscape:export-xdpi="153"
                       inkscape:export-ydpi="153"
                       inkscape:connector-curvature="0" />
                  </g>
                  <path
                     inkscape:export-ydpi="127.07135"
                     inkscape:export-xdpi="127.07135"
                     style="color:#000000;font-style:normal;font-variant:normal;font-weight:normal;font-stretch:normal;font-size:medium;line-height:normal;font-family:sans-serif;text-indent:0;text-align:start;text-decoration:none;text-decoration-line:none;text-decoration-style:solid;text-decoration-color:#000000;letter-spacing:normal;word-spacing:normal;text-transform:none;writing-mode:lr-tb;direction:ltr;baseline-shift:baseline;text-anchor:start;white-space:normal;clip-rule:nonzero;display:inline;overflow:visible;visibility:visible;opacity:1;isolation:auto;mix-blend-mode:normal;color-interpolation:sRGB;color-interpolation-filters:linearRGB;solid-color:#000000;solid-opacity:1;fill:#ee304d;fill-opacity:1;fill-rule:nonzero;stroke:none;stroke-width:2.68168211;stroke-linecap:square;stroke-linejoin:bevel;stroke-miterlimit:4;stroke-dasharray:none;stroke-dashoffset:0;stroke-opacity:1;color-rendering:auto;image-rendering:auto;shape-rendering:auto;text-rendering:auto;enable-background:accumulate"
                     d="m 568.61504,-496.27724 c -1.76,0.0905 -3.4928,0.31536 -5.1875,0.66602 l -1.3125,0.27148 0.543,2.62696 1.3125,-0.27149 c 3.1243,-0.64648 6.3908,-0.82968 9.7148,-0.48437 l 1.334,0.13867 0.2774,-2.66797 -1.334,-0.13867 c -1.8004,-0.18703 -3.5876,-0.2311 -5.3477,-0.14063 z m -27.2734,15.79688 -0.6797,1.15625 c -1.0482,1.35407 -2.0173,3.76255 -2.4758,5.30581 l 2.7116,0.52485 c 0.5306,-1.91445 1.2908,-3.48239 2.0728,-4.46933 l 0.6816,-1.1543 z m 60.7559,22.37109 -0.211,1.32422 c -0.5422,3.4168 -1.6062,6.61588 -3.0996,9.5332 l -0.6113,1.19336 2.3867,1.22266 0.6113,-1.19336 c 1.6202,-3.16499 2.7745,-6.63796 3.3614,-10.33594 l 0.2109,-1.32422 z m -59.3912,18.03703 c 1.5204,1.87669 5.468,5.01018 6.3287,5.42196 l 1.0507,0.83203 1.6621,-2.10547 -1.0507,-0.83008 c -1.0968,-0.68884 -4.7032,-3.50463 -5.588,-4.88794 z m 23.4341,9.89071 -0.25,2.66992 1.334,0.12695 c 1.7898,0.16809 3.5642,0.19354 5.3125,0.0879 l 1.3399,-0.0801 -0.1622,-2.67773 -1.3378,0.082 c -1.6118,0.0974 -3.2504,0.0731 -4.9024,-0.082 l -1.334,-0.12695 z"
                     id="path6748"
                     inkscape:connector-curvature="0"
                     sodipodi:nodetypes="ccccccccccccccccccccccccccccccccccccccccccc" />
                  <path
                     sodipodi:nodetypes="sssssss"
                     inkscape:export-ydpi="127.07135"
                     inkscape:export-xdpi="127.07135"
                     inkscape:connector-curvature="0"
                     id="path6750"
                     d="m 537.00423,-489.09191 c -0.14125,3.84257 1.26633,7.38293 3.66385,10.01953 0.62112,0.68307 1.30869,1.30548 2.05299,1.85677 2.21046,1.63726 4.92123,2.64726 7.87776,2.75598 7.79472,0.28664 14.34588,-5.79984 14.6324,-13.59449 0.28652,-7.79463 -5.80009,-14.34574 -13.5948,-14.63227 -7.79464,-0.28652 -14.34567,5.79992 -14.6322,13.59448 z"
                     style="opacity:1;fill:#ac0e26;fill-opacity:1;stroke:none;stroke-width:1.19185865;stroke-linecap:round;stroke-linejoin:round;stroke-miterlimit:4;stroke-dasharray:none;stroke-dashoffset:0;stroke-opacity:1" />
                  <path
                     inkscape:export-ydpi="127.07135"
                     inkscape:export-xdpi="127.07135"
                     inkscape:connector-curvature="0"
                     id="path6752"
                     d="m 548.25124,-431.53749 a 9.7419561,9.7418407 19.771589 0 0 9.3774,10.09321 9.7419561,9.7418407 19.771589 0 0 10.0933,-9.37735 9.7419561,9.7418407 19.771589 0 0 -9.3776,-10.0932 9.7419561,9.7418407 19.771589 0 0 -10.0931,9.37734 z"
                     style="opacity:1;fill:#f68c9c;fill-opacity:1;stroke:none;stroke-width:1.19185865;stroke-linecap:round;stroke-linejoin:round;stroke-miterlimit:4;stroke-dasharray:none;stroke-dashoffset:0;stroke-opacity:1" />
                  <path
                     inkscape:export-ydpi="127.07135"
                     inkscape:export-xdpi="127.07135"
                     inkscape:connector-curvature="0"
                     id="path6754"
                     d="m 571.02324,-434.89651 a 17.360304,17.360098 19.73224 0 0 16.7109,17.98624 17.360304,17.360098 19.73224 0 0 17.9863,-16.71057 17.360304,17.360098 19.73224 0 0 -16.7109,-17.98623 17.360304,17.360098 19.73224 0 0 -17.9863,16.71056 z"
                     style="opacity:1;fill:#e31333;fill-opacity:1;stroke:none;stroke-width:1.19185865;stroke-linecap:round;stroke-linejoin:round;stroke-miterlimit:4;stroke-dasharray:none;stroke-dashoffset:0;stroke-opacity:1" />
                  <path
                     inkscape:export-ydpi="127.07135"
                     inkscape:export-xdpi="127.07135"
                     inkscape:connector-curvature="0"
                     id="path6756"
                     d="m 569.85184,-482.8374 a 26.513106,26.512792 19.792676 0 0 25.5213,27.46904 26.513106,26.512792 19.792676 0 0 27.4691,-25.5208 26.513106,26.512792 19.792676 0 0 -25.5213,-27.46905 26.513106,26.512792 19.792676 0 0 -27.4691,25.52081 z"
                     style="opacity:1;fill:#f1556d;fill-opacity:1;stroke:none;stroke-width:1.19185865;stroke-linecap:round;stroke-linejoin:round;stroke-miterlimit:4;stroke-dasharray:none;stroke-dashoffset:0;stroke-opacity:1" />
                  <path
                     inkscape:export-ydpi="127.07135"
                     inkscape:export-xdpi="127.07135"
                     style="color:#000000;font-style:normal;font-variant:normal;font-weight:normal;font-stretch:normal;font-size:medium;line-height:normal;font-family:sans-serif;text-indent:0;text-align:start;text-decoration:none;text-decoration-line:none;text-decoration-style:solid;text-decoration-color:#000000;letter-spacing:normal;word-spacing:normal;text-transform:none;writing-mode:lr-tb;direction:ltr;baseline-shift:baseline;text-anchor:start;white-space:normal;clip-rule:nonzero;display:inline;overflow:visible;visibility:visible;opacity:1;isolation:auto;mix-blend-mode:normal;color-interpolation:sRGB;color-interpolation-filters:linearRGB;solid-color:#000000;solid-opacity:1;fill:#ffffff;fill-opacity:1;fill-rule:nonzero;stroke:none;stroke-width:0.77470815;stroke-linecap:square;stroke-linejoin:bevel;stroke-miterlimit:4;stroke-dasharray:none;stroke-dashoffset:0;stroke-opacity:1;color-rendering:auto;image-rendering:auto;shape-rendering:auto;text-rendering:auto;enable-background:accumulate"
                     d="m 572.23238,-493.60123 c 0.91464,0.0105 2.70746,0.28357 3.18346,0.35915 17.3929,2.76016 28.90409,20.28136 26.14399,37.67427 0.87296,-0.15989 2.36447,-0.52826 2.98468,-0.76292 2.6718,-18.62988 -10.05747,-36.59993 -28.70877,-39.55979 -0.5153,-0.0818 -1.28419,-0.21201 -2.17742,-0.25505 -0.4883,0.74258 -1.00426,1.59107 -1.42594,2.54434 z m -8.65287,-2.06065 c -9.5084,1.99748 -18.30759,8.20149 -23.22459,16.5714 0.23347,0.39647 1.32376,1.35241 2.11048,1.91721 4.5326,-7.71567 13.47539,-14.04562 22.24049,-15.88694 -0.30044,-1.149 -0.64944,-1.75917 -1.12638,-2.60167 z m 35.57706,47.48785 c -5.1156,9.94342 -16.55882,17.52646 -27.87352,18.15441 0.31103,1.14346 0.42815,1.85653 0.9393,2.74898 12.069,-0.84728 23.57832,-8.31718 29.05232,-18.95723 -0.76675,-0.83923 -1.45207,-1.42752 -2.1181,-1.94616 z m -50.56189,13.44031 c 4.4595,3.4816 10.43706,6.11912 16.41496,7.06781 0.5318,0.0844 1.73028,0.22434 2.25998,0.28367 0.4012,-0.72996 0.61466,-1.71748 0.68481,-2.62648 -0.6357,-0.0624 -1.88549,-0.20416 -2.52489,-0.30563 -5.5233,-0.87651 -11.30933,-3.74049 -15.42203,-6.95129 -0.91958,0.97805 -1.41283,2.53192 -1.41283,2.53192 z"
                     id="path6758"
                     inkscape:connector-curvature="0"
                     sodipodi:nodetypes="ccccccccccccccccccsccscc" />
                  <path
                     style="opacity:1;fill:none;fill-opacity:1;stroke:none;stroke-width:0.59592932;stroke-linecap:round;stroke-linejoin:round;stroke-miterlimit:4;stroke-dasharray:none;stroke-dashoffset:0;stroke-opacity:1"
                     d="m 536.35411,-489.28175 c -0.14652,3.98587 1.31355,7.65826 3.80048,10.39318 0.64429,0.70855 1.3575,1.35417 2.12955,1.92602 2.2929,1.69832 5.10476,2.74598 8.17154,2.85875 8.08541,0.29733 14.88087,-6.01612 15.17808,-14.10145 0.2972,-8.08531 -6.01639,-14.88073 -14.10178,-15.17794 -8.08532,-0.29721 -14.88065,6.01621 -15.17787,14.10144 z"
                     id="path6766"
                     inkscape:connector-curvature="0"
                     inkscape:export-xdpi="127.07135"
                     inkscape:export-ydpi="127.07135"
                     sodipodi:nodetypes="sssssss" />
                  <path
                     style="opacity:1;fill:none;fill-opacity:1;stroke:none;stroke-width:0.59592932;stroke-linecap:round;stroke-linejoin:round;stroke-miterlimit:4;stroke-dasharray:none;stroke-dashoffset:0;stroke-opacity:1"
                     d="m 569.27281,-482.85868 a 27.092517,27.092196 19.792676 0 0 26.07903,28.06934 27.092517,27.092196 19.792676 0 0 28.06941,-26.07852 27.092517,27.092196 19.792676 0 0 -26.07903,-28.06935 27.092517,27.092196 19.792676 0 0 -28.06941,26.07853 z"
                     id="path6768"
                     inkscape:connector-curvature="0"
                     inkscape:export-xdpi="127.07135"
                     inkscape:export-ydpi="127.07135" />
                  <path
                     style="opacity:1;fill:none;fill-opacity:1;stroke:none;stroke-width:0.59592932;stroke-linecap:round;stroke-linejoin:round;stroke-miterlimit:4;stroke-dasharray:none;stroke-dashoffset:0;stroke-opacity:1"
                     d="m 570.49685,-434.91586 a 17.887043,17.886831 19.716779 0 0 17.21793,18.53198 17.887043,17.886831 19.716779 0 0 18.53204,-17.2176 17.887043,17.886831 19.716779 0 0 -17.21794,-18.53195 17.887043,17.886831 19.716779 0 0 -18.53203,17.21757 z"
                     id="path6770"
                     inkscape:connector-curvature="0"
                     inkscape:export-xdpi="127.07135"
                     inkscape:export-ydpi="127.07135" />
                  <path
                     style="opacity:1;fill:none;fill-opacity:1;stroke:none;stroke-width:0.59592932;stroke-linecap:round;stroke-linejoin:round;stroke-miterlimit:4;stroke-dasharray:none;stroke-dashoffset:0;stroke-opacity:1"
                     d="m 547.6722,-431.55879 a 10.321368,10.321246 19.917813 0 0 9.93513,10.69351 10.321368,10.321246 19.917813 0 0 10.69361,-9.93507 10.321368,10.321246 19.917813 0 0 -9.93534,-10.69351 10.321368,10.321246 19.917813 0 0 -10.6934,9.93507 z"
                     id="path6772"
                     inkscape:connector-curvature="0"
                     inkscape:export-xdpi="127.07135"
                     inkscape:export-ydpi="127.07135" />
                </g>
              </g>
            </g>
          </g>
        </g>
      </g>
    </g>
    <g
       transform="translate(-220,-40)"
       inkscape:export-ydpi="56.417053"
       inkscape:export-xdpi="56.417053"
       inkscape:export-filename="/tmp/logo_sympa_groupe.png"
       id="g4759" />
  </g>
</svg>
