<?xml version="1.0" encoding="UTF-8" standalone="no"?> <svg width="48" height="48" viewBox="0 0 48 48" fill="none" xmlns="http://www.w3.org/2000/svg">
<path d="M43 17C43.2652 17 43.5196 16.8946 43.7071 16.7071C43.8946 16.5196 44 16.2652 44 16C44 15.7348 43.8946 15.4804 43.7071 15.2929C43.5196 15.1054 43.2652 15 43 15H41V13H43C43.2652 13 43.5196 12.8946 43.7071 12.7071C43.8946 12.5196 44 12.2652 44 12C44 11.7348 43.8946 11.4804 43.7071 11.2929C43.5196 11.1054 43.2652 11 43 11H41V10C41 9.20435 40.6839 8.44129 40.1213 7.87868C39.5587 7.31607 38.7957 7 38 7H37V5C37 4.73478 36.8946 4.48043 36.7071 4.29289C36.5196 4.10536 36.2652 4 36 4C35.7348 4 35.4804 4.10536 35.2929 4.29289C35.1054 4.48043 35 4.73478 35 5V7H33V5C33 4.73478 32.8946 4.48043 32.7071 4.29289C32.5196 4.10536 32.2652 4 32 4C31.7348 4 31.4804 4.10536 31.2929 4.29289C31.1054 4.48043 31 4.73478 31 5V7H29V5C29 4.73478 28.8946 4.48043 28.7071 4.29289C28.5196 4.10536 28.2652 4 28 4C27.7348 4 27.4804 4.10536 27.2929 4.29289C27.1054 4.48043 27 4.73478 27 5V7H25V5C25 4.73478 24.8946 4.48043 24.7071 4.29289C24.5196 4.10536 24.2652 4 24 4C23.7348 4 23.4804 4.10536 23.2929 4.29289C23.1054 4.48043 23 4.73478 23 5V7H21V5C21 4.73478 20.8946 4.48043 20.7071 4.29289C20.5196 4.10536 20.2652 4 20 4C19.7348 4 19.4804 4.10536 19.2929 4.29289C19.1054 4.48043 19 4.73478 19 5V7H17V5C17 4.73478 16.8946 4.48043 16.7071 4.29289C16.5196 4.10536 16.2652 4 16 4C15.7348 4 15.4804 4.10536 15.2929 4.29289C15.1054 4.48043 15 4.73478 15 5V7H13V5C13 4.73478 12.8946 4.48043 12.7071 4.29289C12.5196 4.10536 12.2652 4 12 4C11.7348 4 11.4804 4.10536 11.2929 4.29289C11.1054 4.48043 11 4.73478 11 5V7H10C9.20435 7 8.44129 7.31607 7.87868 7.87868C7.31607 8.44129 7 9.20435 7 10V11H5C4.73478 11 4.48043 11.1054 4.29289 11.2929C4.10536 11.4804 4 11.7348 4 12C4 12.2652 4.10536 12.5196 4.29289 12.7071C4.48043 12.8946 4.73478 13 5 13H7V15H5C4.73478 15 4.48043 15.1054 4.29289 15.2929C4.10536 15.4804 4 15.7348 4 16C4 16.2652 4.10536 16.5196 4.29289 16.7071C4.48043 16.8946 4.73478 17 5 17H7V19H5C4.73478 19 4.48043 19.1054 4.29289 19.2929C4.10536 19.4804 4 19.7348 4 20C4 20.2652 4.10536 20.5196 4.29289 20.7071C4.48043 20.8946 4.73478 21 5 21H7V23H5C4.73478 23 4.48043 23.1054 4.29289 23.2929C4.10536 23.4804 4 23.7348 4 24C4 24.2652 4.10536 24.5196 4.29289 24.7071C4.48043 24.8946 4.73478 25 5 25H7V27H5C4.73478 27 4.48043 27.1054 4.29289 27.2929C4.10536 27.4804 4 27.7348 4 28C4 28.2652 4.10536 28.5196 4.29289 28.7071C4.48043 28.8946 4.73478 29 5 29H7V31H5C4.73478 31 4.48043 31.1054 4.29289 31.2929C4.10536 31.4804 4 31.7348 4 32C4 32.2652 4.10536 32.5196 4.29289 32.7071C4.48043 32.8946 4.73478 33 5 33H7V35H5C4.73478 35 4.48043 35.1054 4.29289 35.2929C4.10536 35.4804 4 35.7348 4 36C4 36.2652 4.10536 36.5196 4.29289 36.7071C4.48043 36.8946 4.73478 37 5 37H7V38C7 38.7957 7.31607 39.5587 7.87868 40.1213C8.44129 40.6839 9.20435 41 10 41H11V43C11 43.2652 11.1054 43.5196 11.2929 43.7071C11.4804 43.8946 11.7348 44 12 44C12.2652 44 12.5196 43.8946 12.7071 43.7071C12.8946 43.5196 13 43.2652 13 43V41H15V43C15 43.2652 15.1054 43.5196 15.2929 43.7071C15.4804 43.8946 15.7348 44 16 44C16.2652 44 16.5196 43.8946 16.7071 43.7071C16.8946 43.5196 17 43.2652 17 43V41H19V43C19 43.2652 19.1054 43.5196 19.2929 43.7071C19.4804 43.8946 19.7348 44 20 44C20.2652 44 20.5196 43.8946 20.7071 43.7071C20.8946 43.5196 21 43.2652 21 43V41H23V43C23 43.2652 23.1054 43.5196 23.2929 43.7071C23.4804 43.8946 23.7348 44 24 44C24.2652 44 24.5196 43.8946 24.7071 43.7071C24.8946 43.5196 25 43.2652 25 43V41H27V43C27 43.2652 27.1054 43.5196 27.2929 43.7071C27.4804 43.8946 27.7348 44 28 44C28.2652 44 28.5196 43.8946 28.7071 43.7071C28.8946 43.5196 29 43.2652 29 43V41H31V43C31 43.2652 31.1054 43.5196 31.2929 43.7071C31.4804 43.8946 31.7348 44 32 44C32.2652 44 32.5196 43.8946 32.7071 43.7071C32.8946 43.5196 33 43.2652 33 43V41H35V43C35 43.2652 35.1054 43.5196 35.2929 43.7071C35.4804 43.8946 35.7348 44 36 44C36.2652 44 36.5196 43.8946 36.7071 43.7071C36.8946 43.5196 37 43.2652 37 43V41H38C38.7957 41 39.5587 40.6839 40.1213 40.1213C40.6839 39.5587 41 38.7957 41 38V37H43C43.2652 37 43.5196 36.8946 43.7071 36.7071C43.8946 36.5196 44 36.2652 44 36C44 35.7348 43.8946 35.4804 43.7071 35.2929C43.5196 35.1054 43.2652 35 43 35H41V33H43C43.2652 33 43.5196 32.8946 43.7071 32.7071C43.8946 32.5196 44 32.2652 44 32C44 31.7348 43.8946 31.4804 43.7071 31.2929C43.5196 31.1054 43.2652 31 43 31H41V29H43C43.2652 29 43.5196 28.8946 43.7071 28.7071C43.8946 28.5196 44 28.2652 44 28C44 27.7348 43.8946 27.4804 43.7071 27.2929C43.5196 27.1054 43.2652 27 43 27H41V25H43C43.2652 25 43.5196 24.8946 43.7071 24.7071C43.8946 24.5196 44 24.2652 44 24C44 23.7348 43.8946 23.4804 43.7071 23.2929C43.5196 23.1054 43.2652 23 43 23H41V21H43C43.2652 21 43.5196 20.8946 43.7071 20.7071C43.8946 20.5196 44 20.2652 44 20C44 19.7348 43.8946 19.4804 43.7071 19.2929C43.5196 19.1054 43.2652 19 43 19H41V17H43ZM39 38C39 38.2652 38.8946 38.5196 38.7071 38.7071C38.5196 38.8946 38.2652 39 38 39H10C9.73478 39 9.48043 38.8946 9.29289 38.7071C9.10536 38.5196 9 38.2652 9 38V10C9 9.73478 9.10536 9.48043 9.29289 9.29289C9.48043 9.10536 9.73478 9 10 9H38C38.2652 9 38.5196 9.10536 38.7071 9.29289C38.8946 9.48043 39 9.73478 39 10V38Z" fill="white"/>
<path d="M36 11H12C11.7348 11 11.4804 11.1054 11.2929 11.2929C11.1054 11.4804 11 11.7348 11 12V36C11 36.2652 11.1054 36.5196 11.2929 36.7071C11.4804 36.8946 11.7348 37 12 37H36C36.2652 37 36.5196 36.8946 36.7071 36.7071C36.8946 36.5196 37 36.2652 37 36V12C37 11.7348 36.8946 11.4804 36.7071 11.2929C36.5196 11.1054 36.2652 11 36 11ZM35 35H13V13H35V35Z" fill="white"/>
<path d="M17 28H19C19.2652 28 19.5196 27.8946 19.7071 27.7071C19.8946 27.5196 20 27.2652 20 27C20 26.7348 19.8946 26.4804 19.7071 26.2929C19.5196 26.1054 19.2652 26 19 26H17V22H19C19.2652 22 19.5196 21.8946 19.7071 21.7071C19.8946 21.5196 20 21.2652 20 21C20 20.7348 19.8946 20.4804 19.7071 20.2929C19.5196 20.1054 19.2652 20 19 20H17C16.4696 20 15.9609 20.2107 15.5858 20.5858C15.2107 20.9609 15 21.4696 15 22V26C15 26.5304 15.2107 27.0391 15.5858 27.4142C15.9609 27.7893 16.4696 28 17 28Z" fill="white"/>
<path d="M22 28C22.2652 28 22.5196 27.8946 22.7071 27.7071C22.8946 27.5196 23 27.2652 23 27V25H25C25.2652 25 25.5196 24.8946 25.7071 24.7071C25.8946 24.5196 26 24.2652 26 24V21C26 20.7348 25.8946 20.4804 25.7071 20.2929C25.5196 20.1054 25.2652 20 25 20H22C21.7348 20 21.4804 20.1054 21.2929 20.2929C21.1054 20.4804 21 20.7348 21 21V27C21 27.2652 21.1054 27.5196 21.2929 27.7071C21.4804 27.8946 21.7348 28 22 28ZM23 22H24V23H23V22Z" fill="white"/>
<path d="M29 28H31C31.5304 28 32.0391 27.7893 32.4142 27.4142C32.7893 27.0391 33 26.5304 33 26V21C33 20.7348 32.8946 20.4804 32.7071 20.2929C32.5196 20.1054 32.2652 20 32 20C31.7348 20 31.4804 20.1054 31.2929 20.2929C31.1054 20.4804 31 20.7348 31 21V26H29V21C29 20.7348 28.8946 20.4804 28.7071 20.2929C28.5196 20.1054 28.2652 20 28 20C27.7348 20 27.4804 20.1054 27.2929 20.2929C27.1054 20.4804 27 20.7348 27 21V26C27 26.5304 27.2107 27.0391 27.5858 27.4142C27.9609 27.7893 28.4696 28 29 28Z" fill="white"/>
</svg>
