<?xml version="1.0" standalone="no"?>
<!DOCTYPE svg PUBLIC "-//W3C//DTD SVG 20010904//EN"
 "http://www.w3.org/TR/2001/REC-SVG-20010904/DTD/svg10.dtd">
<svg version="1.0" xmlns="http://www.w3.org/2000/svg"
 width="630.000000pt" height="630.000000pt" viewBox="0 0 630.000000 630.000000"
 preserveAspectRatio="xMidYMid meet">

<g transform="translate(0.000000,630.000000) scale(0.100000,-0.100000)"
fill="#000000" stroke="none">
<path d="M1815 6269 c-2 -8 -31 -93 -64 -189 -33 -96 -65 -190 -71 -208 -9
-24 -29 -42 -79 -71 -313 -184 -647 -485 -881 -796 -345 -458 -553 -991 -610
-1565 -14 -135 -14 -465 0 -600 38 -380 144 -749 311 -1083 259 -515 585 -884
1066 -1204 408 -272 909 -451 1413 -503 128 -13 453 -13 603 1 172 16 172 20
-4 54 -348 67 -482 106 -649 190 -218 109 -466 349 -574 555 -84 162 -136 357
-143 545 -6 161 12 271 73 454 89 266 291 558 548 792 223 202 770 486 1050
545 155 32 345 53 511 55 155 2 193 -2 435 -39 340 -53 461 -65 603 -61 112 4
115 4 99 -14 -53 -59 -326 -187 -597 -281 -336 -117 -452 -168 -635 -279 -86
-52 -304 -211 -293 -214 4 -1 49 -9 99 -17 131 -22 392 -99 490 -145 123 -58
226 -133 344 -251 217 -217 361 -498 405 -792 21 -138 18 -190 -21 -318 -17
-58 285 257 426 445 344 456 553 994 610 1565 13 135 13 465 0 600 -91 913
-571 1727 -1328 2255 -93 64 -275 175 -280 170 -2 -2 10 -41 26 -86 37 -106
66 -232 88 -378 18 -128 14 -192 -18 -255 -24 -48 -189 -268 -196 -262 -5 6
15 367 24 449 5 38 3 47 -9 47 -16 0 -75 -76 -96 -125 -57 -128 -104 -309
-141 -544 l-22 -134 55 -81 c30 -44 64 -98 76 -118 20 -34 80 -88 250 -227 48
-38 152 -96 374 -207 169 -85 310 -161 314 -170 3 -8 1 -26 -5 -40 -11 -23
-16 -24 -107 -24 -103 0 -334 29 -485 61 -103 22 -514 157 -595 195 -46 22
-54 31 -108 130 -68 122 -102 163 -212 252 -94 76 -176 119 -305 160 -131 42
-227 55 -366 51 -113 -4 -123 -6 -196 -41 -128 -61 -126 -63 83 -145 l179 -70
0 28 c0 15 4 30 8 33 14 8 189 -23 270 -49 148 -47 361 -172 482 -283 67 -61
165 -182 193 -238 23 -46 33 -114 17 -114 -8 0 -135 31 -285 70 -427 110 -489
122 -662 127 -382 13 -675 -71 -1001 -287 -233 -155 -348 -308 -469 -619 -62
-161 -84 -211 -93 -211 -12 0 -46 112 -72 235 -39 186 -26 516 27 685 67 215
98 288 180 422 47 77 85 143 85 147 0 4 75 82 167 173 l167 166 -39 139 c-28
100 -39 165 -43 236 -2 53 -2 97 1 97 3 0 18 -28 35 -62 16 -35 47 -84 68
-109 46 -54 208 -199 223 -199 5 0 11 16 13 36 3 34 9 39 113 103 64 39 111
74 113 85 8 42 -169 379 -313 597 -139 208 -290 373 -467 509 -82 64 -118 106
-118 138 0 33 11 52 29 52 17 0 225 -110 311 -165 156 -98 453 -349 695 -585
110 -108 237 -228 283 -268 123 -108 347 -270 357 -260 2 2 -7 26 -20 53 -13
28 -27 65 -30 83 -6 32 -6 32 32 33 21 1 41 1 44 1 4 -1 43 -2 89 -3 66 -1 85
-5 100 -21 15 -17 230 -113 235 -106 1 2 29 71 63 153 122 300 145 353 244
555 55 113 101 214 103 225 1 12 9 32 18 46 10 14 14 29 11 32 -4 4 8 41 26
83 28 63 31 77 19 85 -43 27 -116 -4 -169 -71 l-30 -39 -103 35 c-191 65 -410
115 -637 145 -128 17 -575 17 -710 0 -120 -15 -373 -64 -446 -86 -72 -22 -85
-20 -192 34 -132 66 -226 98 -310 107 -57 5 -73 4 -77 -7z"/>
<path d="M3342 1262 c-92 -33 -138 -93 -149 -193 l-6 -63 34 22 c61 40 163 89
221 106 129 37 339 10 463 -59 167 -93 262 -219 361 -483 43 -113 52 -113 53
-2 1 87 -12 139 -60 238 -77 160 -288 339 -487 413 -81 30 -98 33 -232 36
-123 3 -153 1 -198 -15z"/>
</g>
</svg>
