<svg width="100" height="100" xmlns="http://www.w3.org/2000/svg"><defs><linearGradient id="a" gradientUnits="userSpaceOnUse" x1="-277.375" y1="406.602" x2="-277.375" y2="407.573" gradientTransform="matrix(97.92917 0 0 -97.38516 27213.401 39692.704)"><stop offset="0" style="stop-color:#0062e0"/><stop offset="1" style="stop-color:#19afff"/></linearGradient></defs><path class="st0" d="M42.216 98.638C18.958 94.476 1.331 74.401 1.331 50.163c0-26.93 22.034-48.965 48.964-48.965S99.26 23.233 99.26 50.163c0 24.238-17.627 44.313-40.886 48.475l-2.693-2.203H44.91z" style="fill:url(#a);stroke-width:2.44823"/><path class="st1" d="m69.391 63.873 2.204-13.71H58.619v-9.548c0-3.917 1.47-6.855 7.345-6.855h6.365V21.274c-3.427-.49-7.344-.98-10.772-.98-11.262 0-19.096 6.856-19.096 19.097v10.772H30.22v13.71H42.46v34.52c2.693.49 5.386.735 8.08.735 2.692 0 5.385-.245 8.078-.735v-34.52z" style="fill:#fff;stroke-width:2.44823"/></svg>